<?xml version="1.0" standalone="no"?>
<!DOCTYPE svg PUBLIC "-//W3C//DTD SVG 1.1//EN" "http://www.w3.org/Graphics/SVG/1.1/DTD/svg11.dtd" >
<svg xmlns="http://www.w3.org/2000/svg">
<metadata>Generated by IcoMoon</metadata>
<defs>
<font id="icomoon" horiz-adv-x="1024">
<font-face units-per-em="1024" ascent="960" descent="-64" />
<missing-glyph horiz-adv-x="1024" />
<glyph unicode="&#x20;" horiz-adv-x="512" d="" />
<glyph unicode="&#xe900;" d="M89.28 951.36c11.6 6.88 25.84 5.36 38.72 6.16 264-0.48 528 0.24 792-0.4 32.080 1.92 59.36-28.8 55.44-60.4-0.080-298.96 0-598-0.080-896.96 2.48-25.52-15.12-50.64-39.76-57.28-23.52-3.6-47.52-1.76-71.28-2.080-248.080 0.16-496.24 0-744.32 0.080-33.040-3.6-63.2 26.32-60.080 59.28 0 298.96 0.080 598 0 896.96-1.92 22.16 9.76 44.16 29.36 54.64zM139.36 875.36c-11.84-2.72-19.36-15.36-17.92-27.12-0.4-53.68-0.64-107.36 0.080-161.040-1.040-10.4 7.12-18.4 14.96-23.68 23.6-3.68 47.6-1.84 71.44-2 224.16 0.16 448.4 0 672.56 0.080 15.84-1.92 35.44 8.080 34 26.32 0.96 53.44 0.72 106.88 0.16 160.32 2.64 19.68-17.52 31.28-34.88 28.56-246.8-1.12-493.76 1.76-740.4-1.44zM178.24 579.92c-26.48-7.12-47.68-32.32-47.76-60.16-2.48-39.52 38.96-74.88 77.52-64.88 29.52 6.4 52.8 34.8 51.040 65.28-0.56 39.44-42.72 71.44-80.8 59.76zM395.2 580c-46.88-10.48-65.12-76.64-27.92-108.32 33.040-35.92 98.48-14.64 107.12 32.48 11.6 44.48-35.2 89.36-79.2 75.84zM610.88 579.92c-47.040-10.72-64.8-77.36-27.12-108.72 33.2-35.36 97.92-13.84 106.56 32.8 11.76 44.64-35.36 89.68-79.44 75.92zM820 578.32c-44.24-13.92-57.6-78.4-21.2-107.76 33.040-34.4 96.72-13.040 105.52 32.8 13.6 46.88-39.28 93.68-84.32 74.96zM818 374.72c-27.76-11.2-44.96-40.56-43.12-70.24-0.16-72.24-0.24-144.56 0-216.88-1.84-31.52 19.28-61.84 49.44-71.040 40.72-14.56 88.16 20.24 88.8 62.88 1.68 66.8-0.32 133.6 0.8 200.32-0.4 23.28 2.16 49.2-12.24 69.2-17.36 26.56-54.32 39.52-83.68 25.76zM179.040 364.16c-47.84-9.92-65.84-77.76-27.76-109.040 33.040-35.2 97.52-13.6 106.24 32.72 11.84 44.24-34.56 89.52-78.48 76.32zM394.64 363.84c-46.8-10.88-64.48-77.28-26.88-108.56 33.12-35.28 97.6-14.080 106.56 32.48 12.080 44.8-35.44 90.24-79.68 76.080zM610.64 363.92c-46.72-10.88-64.48-77.2-27.12-108.56 33.36-35.76 98.8-13.76 106.96 33.36 11.2 44.64-36 89.040-79.84 75.2zM171.84 146.88c-43.84-14.72-56-78.48-19.84-107.68 33.44-33.52 96-12.72 105.28 32.8 13.68 47.6-40 94.56-85.44 74.88zM394 148.64c-44.32-10.8-62.96-72.24-30-104.8 30-36.32 93.76-22.88 108.080 21.44 19.36 46.4-30.56 99.12-78.080 83.36zM603.6 147.2c-24.16-8.88-42.24-33.28-41.84-59.36-2.080-37.040 34.24-69.12 70.48-65.44 34.96 4.24 63.6 38.96 57.36 74.4-5.68 38.48-49.44 64.96-86 50.4z" />
<glyph unicode="&#xe901;" d="M139.36 875.36c246.64 3.2 493.6 0.32 740.4 1.44 17.36 2.72 37.52-8.88 34.88-28.56 0.56-53.44 0.8-106.88-0.16-160.32 1.44-18.24-18.16-28.24-34-26.32-224.16-0.080-448.4 0.080-672.56-0.080-23.84 0.16-47.84-1.68-71.44 2-7.84 5.28-16 13.28-14.96 23.68-0.72 53.68-0.48 107.36-0.080 161.040-1.44 11.76 6.080 24.4 17.92 27.12z" />
<glyph unicode="&#xe902;" d="M178.24 579.92c38.080 11.68 80.24-20.32 80.8-59.76 1.76-30.48-21.52-58.88-51.040-65.28-38.56-10-80 25.36-77.52 64.88 0.080 27.84 21.28 53.040 47.76 60.16z" />
<glyph unicode="&#xe903;" d="M395.2 580c44 13.52 90.8-31.36 79.2-75.84-8.64-47.12-74.080-68.4-107.12-32.48-37.2 31.68-18.96 97.84 27.92 108.32z" />
<glyph unicode="&#xe904;" d="M610.88 579.92c44.080 13.76 91.2-31.28 79.44-75.92-8.64-46.64-73.36-68.16-106.56-32.8-37.68 31.36-19.92 98 27.12 108.72z" />
<glyph unicode="&#xe905;" d="M820 578.32c45.040 18.72 97.92-28.080 84.32-74.96-8.8-45.84-72.48-67.2-105.52-32.8-36.4 29.36-23.040 93.84 21.2 107.76z" />
<glyph unicode="&#xe906;" d="M818 374.72c29.36 13.76 66.32 0.8 83.68-25.76 14.4-20 11.84-45.92 12.24-69.2-1.12-66.72 0.88-133.52-0.8-200.32-0.64-42.64-48.080-77.44-88.8-62.88-30.16 9.2-51.28 39.52-49.44 71.040-0.24 72.32-0.16 144.64 0 216.88-1.84 29.68 15.36 59.040 43.12 70.24z" />
<glyph unicode="&#xe907;" d="M179.040 364.16c43.92 13.2 90.32-32.080 78.48-76.32-8.72-46.32-73.2-67.92-106.24-32.72-38.080 31.28-20.080 99.12 27.76 109.040z" />
<glyph unicode="&#xe908;" d="M394.64 363.84c44.24 14.16 91.76-31.28 79.68-76.080-8.96-46.56-73.44-67.76-106.56-32.48-37.6 31.28-19.92 97.68 26.88 108.56z" />
<glyph unicode="&#xe909;" d="M610.64 363.92c43.84 13.84 91.040-30.56 79.84-75.2-8.16-47.12-73.6-69.12-106.96-33.36-37.36 31.36-19.6 97.68 27.12 108.56z" />
<glyph unicode="&#xe90a;" d="M171.84 146.88c45.44 19.68 99.12-27.28 85.44-74.88-9.28-45.52-71.84-66.32-105.28-32.8-36.16 29.2-24 92.96 19.84 107.68z" />
<glyph unicode="&#xe90b;" d="M394 148.64c47.52 15.76 97.44-36.96 78.080-83.36-14.32-44.32-78.080-57.76-108.080-21.44-32.96 32.56-14.32 94 30 104.8z" />
<glyph unicode="&#xe90c;" d="M603.6 147.2c36.56 14.56 80.32-11.92 86-50.4 6.24-35.44-22.4-70.16-57.36-74.4-36.24-3.68-72.56 28.4-70.48 65.44-0.4 26.080 17.68 50.48 41.84 59.36z" />
<glyph unicode="&#xe90d;" d="M134 935.52c46.72-0.88 93.52-0.32 140.24-0.56 0.96-25.76-3.92-52.8 5.68-77.52 11.84 24.16 5.040 51.84 6.56 77.6 41.040-0.32 82.080 0.64 123.12-0.56-0.72-22.88-1.28-45.84 1.2-68.64l5.6-2.8c11.36 20.8 2.72 48.96 5.2 72.64 37.040-1.36 74.080-0.24 111.040-0.72 3.44-21.36-8.56-49.52 9.12-66 2.48 22 2.72 44.16 2.4 66.24 39.84-0.24 79.68-0.32 119.52 0 3.68-22.24-10.88-56 10.64-70.56 0.080 23.44-0.080 46.88 0.48 70.4 36.64 0 73.2 0 109.84 0.080 0.88-46.16 0-92.4 0.56-138.64-217.2-0.4-434.32 0.16-651.44-0.24 0.24 46.4-0.080 92.8 0.24 139.28z" />
<glyph unicode="&#xe90e;" d="M848 646.48c31.12 19.2 69.76 36.24 105.84 19.68 28.16-14 60.8-38.88 56.48-74.16-0.48-148.32 0.16-296.64-0.32-444.96-47.84 29.52-108.080 46.48-162.080 23.12 0.24 158.72 0 317.52 0.080 476.32z" />
<glyph unicode="&#xe90f;" d="M75.52 556.32c103.12 3.040 206.56-2.080 309.84-0.4-50-36.56-63.28-106.96-40.16-162.72 9.36-37.28 45.84-60.24 53.68-98.080 4.080-12 2.48-26.48 10.24-36.96 42.72-3.040 85.68 0.72 128.56-1.84 5.44 73.76 81.28 122.48 74.24 199.040 0.8 38.080-19.12 72.72-47.92 96.4 89.36 0.56 178.64 0.080 268 0.24 0.24-133.92-0.48-267.84 0.32-401.76 26.080 7.92 52.080 20 79.92 17.52 35.84-3.2 69.36-19.12 98.48-39.68-1.28-33.28-1.84-68-17.76-98.16-12.48-24.32-33.6-51.84-64.4-48.16-274.8 0-549.68-0.16-824.56 0.080-48.64-4.88-90.88 43.52-88.64 90.16 0.48 138.56 0.48 277.2 0.080 415.76-5.040 35.76 31.28 58 60.080 68.56zM179.36 469.6c-19.6-8.080-24.32-35.44-3.76-45.36 28.88-5.040 58.8-2.16 88-1.76 20 8 18.16 33.92 7.12 48.56-30.4-1.92-60.96 1.2-91.36-1.44zM688.64 422c33.76 3.44 82.72-14.88 99.44 25.6-8.24 8.080-14 23.6-27.76 22.72-26.88 0.24-53.76 0.88-80.64-0.24-23.28-8.8-17.040-49.68 8.96-48.080zM248.88 255.52c-16.16-20.96 18.56-49.040 35.92-29.52 18.88 18.32 42.48 33.040 56.16 56 11.28 19.92-8.4 41.2-29.44 36.8-20.64-21.28-42.56-41.36-62.64-63.28zM619.28 317.76c-10.56-4.24-19.28-15.12-17.2-26.96 15.2-24.24 36.32-44.4 58.080-62.72 12.88-12.24 37.2-6.64 40.64 11.76-3.28 21.2-21.68 34.88-34.88 50.16-13.12 12.16-26.48 30.48-46.64 27.76zM410.64 228.080c-19.84-19.76-18.56-77.84 20.88-69.6 6.56-6.48 12.96-13.12 19.36-19.76 15.84-0.72 31.68-0.4 47.36 1.12 5.040 6 10 12 14.96 18 9.52 1.28 19.12 2.48 28.64 3.68-1.040 21.36 14.8 54.88-8.32 67.76-40.8 0.88-82.48 3.28-122.88-1.2z" />
<glyph unicode="&#xe910;" d="M274.24 934.96c3.040 0 9.2 0.080 12.24 0.080-1.52-25.76 5.28-53.44-6.56-77.6-9.6 24.72-4.72 51.76-5.68 77.52z" />
<glyph unicode="&#xe911;" d="M409.6 934.48c3.040 0.24 9.040 0.88 12 1.2-2.48-23.68 6.16-51.84-5.2-72.64l-5.6 2.8c-2.48 22.8-1.92 45.76-1.2 68.64z" />
<glyph unicode="&#xe912;" d="M532.64 934.96c2.88 0.080 8.64 0.16 11.52 0.24 0.32-22.080 0.080-44.24-2.4-66.24-17.68 16.48-5.68 44.64-9.12 66z" />
<glyph unicode="&#xe913;" d="M663.68 935.2c2.8 0 8.32-0.16 11.12-0.16-0.56-23.52-0.4-46.96-0.48-70.4-21.52 14.56-6.96 48.32-10.64 70.56z" />
<glyph unicode="&#xe914;" d="M380.64 441.28c-8 54.32 45.12 107.36 99.44 98.56 11.76-1.76 33.68 2.24 35.36-14.64-64.88 6.8-122.4-55.68-117.28-119.36-14.72 5.12-14.48 22.8-17.52 35.44z" />
<glyph unicode="&#xe915;" d="M448.96 720.24c-2.56 16.64 6.32 36.16 24.48 38.64 17.92-2.32 26.88-22.4 24.32-38.8-1.36-26.56 5.36-55.44-9.76-79.28-10.88 0.080-21.76 0.16-32.64 0.080-11.44 24.88-4.8 52.96-6.4 79.36z" />
<glyph unicode="&#xe916;" d="M246.080 647.36c-4.72 18.32 16.24 33.2 33.2 27.040 22.4-20.64 44.16-42.56 63.040-66.4 15.36-26.88-29.92-44.24-44.32-22.96-14.56 23.28-46.88 33.12-51.92 62.32z" />
<glyph unicode="&#xe917;" d="M600.8 598.88c12.4 30.080 44.24 45.68 62.16 72.16 11.040-1.76 25.36 2.4 33.2-7.92 10-10.8 0.16-23.52-6.88-32.4-16.48-20.56-35.6-39.76-58.32-53.2-15.28-8.4-26.4 8.88-30.16 21.36z" />
<glyph unicode="&#xe918;" d="M399.040 567.36c44.56 24.080 103.52 30.72 146.16-1.2 6.48-4.56 12.72-9.36 18.8-14.4 28.8-23.68 48.72-58.32 47.92-96.4 7.040-76.56-68.8-125.28-74.24-199.040-42.88 2.56-85.84-1.2-128.56 1.84-7.76 10.48-6.16 24.96-10.24 36.96-7.84 37.84-44.32 60.8-53.68 98.080-23.12 55.76-9.84 126.16 40.16 162.72 3.44 2.88 10.24 8.56 13.68 11.44zM380.64 441.28c3.040-12.64 2.8-30.32 17.52-35.44-5.12 63.68 52.4 126.16 117.28 119.36-1.68 16.88-23.6 12.88-35.36 14.64-54.32 8.8-107.44-44.24-99.44-98.56z" />
<glyph unicode="&#xe919;" d="M179.36 469.6c30.4 2.64 60.96-0.48 91.36 1.44 11.040-14.64 12.88-40.56-7.12-48.56-29.2-0.4-59.12-3.28-88 1.76-20.56 9.92-15.84 37.28 3.76 45.36z" />
<glyph unicode="&#xe91a;" d="M688.64 422c-26-1.6-32.24 39.28-8.96 48.080 26.88 1.12 53.76 0.48 80.64 0.24 13.76 0.88 19.52-14.64 27.76-22.72-16.72-40.48-65.68-22.16-99.44-25.6z" />
<glyph unicode="&#xe91b;" d="M248.88 255.52c20.080 21.92 42 42 62.64 63.28 21.040 4.4 40.72-16.88 29.44-36.8-13.68-22.96-37.28-37.68-56.16-56-17.36-19.52-52.080 8.56-35.92 29.52z" />
<glyph unicode="&#xe91c;" d="M619.28 317.76c20.16 2.72 33.52-15.6 46.64-27.76 13.2-15.28 31.6-28.96 34.88-50.16-3.44-18.4-27.76-24-40.64-11.76-21.76 18.32-42.88 38.48-58.080 62.72-2.080 11.84 6.64 22.72 17.2 26.96z" />
<glyph unicode="&#xe91d;" d="M410.64 228.080c40.4 4.48 82.080 2.080 122.88 1.2 23.12-12.88 7.28-46.4 8.32-67.76-9.52-1.2-19.12-2.4-28.64-3.68-4.96-6-9.92-12-14.96-18-15.68-1.52-31.52-1.84-47.36-1.12-6.4 6.64-12.8 13.28-19.36 19.76-39.44-8.24-40.72 49.84-20.88 69.6z" />
<glyph unicode="&#xe91e;" d="M836.88 651.040c32.080 28.96 81.28 43.68 122.24 25.6 27.92-11.6 47.2-35.52 64.88-58.88v-496.48c-1.36-44.96-10-93.36-41.6-127.52-12.32-12.24-27.12-25.84-45.6-25.36-264.16 0.16-528.32 0.16-792.48 0-23.040 0.4-46.56-2.080-69.2 3.36-36.080 11.52-60.64 45.040-71.92 79.92l-3.2-10.32v470.080l2.72-8c9.040 32.24 39.28 52.72 68.72 64.56 109.12 1.040 218.4 0.080 327.6-0.64-3.44-2.88-10.24-8.56-13.68-11.44-103.28-1.68-206.72 3.44-309.84 0.4-28.8-10.56-65.12-32.8-60.080-68.56 0.4-138.56 0.4-277.2-0.080-415.76-2.24-46.64 40-95.040 88.64-90.16 274.88-0.24 549.76-0.080 824.56-0.080 30.8-3.68 51.92 23.84 64.4 48.16 15.92 30.16 16.48 64.88 17.76 98.16-29.12 20.56-62.64 36.48-98.48 39.68-27.84 2.48-53.84-9.6-79.92-17.52-0.8 133.92-0.080 267.84-0.32 401.76-89.36-0.16-178.64 0.32-268-0.24-6.080 5.040-12.32 9.84-18.8 14.4 96-0.96 192.080-0.72 288.080-2.64 2.88 28.96-4.32 59.76 3.6 87.52zM848 646.48c-0.080-158.8 0.16-317.6-0.080-476.32 54 23.36 114.24 6.4 162.080-23.12 0.48 148.32-0.16 296.64 0.32 444.96 4.32 35.28-28.32 60.16-56.48 74.16-36.080 16.56-74.72-0.48-105.84-19.68z" />
<glyph unicode="&#xe91f;" d="M715.92 705.84c0 48.4-0.64 96.88 0 145.28 50.16-0.080 100.4 0.24 150.64-0.16 2.72-90.88 1.52-182.4 6.8-272.88 49.52-41.44 99.68-82.16 150.64-121.84v0c-24.48-24.56-46.88-51.040-70.8-76.080-149.12 126-299.92 250-449.12 375.76-138.16-116.64-277.36-232.16-416-348.24-7.52-4.64-12.72-15.6-22.56-14.88-21.12 20.8-42.24 41.6-62.48 63.36l-3.040-6.080v4.8c157.92 128.080 313.040 259.6 470.56 388.16 27.76-0.16 55.52-0.4 83.28 0.16 55.36-43.84 107.76-92 162.080-137.36z" />
<glyph unicode="&#xe920;" d="M195.52 419.76c106.080 88.32 211.44 177.76 317.76 265.84 115.44-96.64 232-192.24 347.76-288.56 3.52-117.28 1.28-236.96 1.12-354.96-83.52 0.16-167.12-0.32-250.64 0.24-0.16 81.6 0.32 163.2-0.24 244.8-61.84-0.48-123.76 0.8-185.6-0.64 0.4-82 0.4-163.92 0.080-245.92-89.040 0.56-178.080-0.32-267.040 0.4-0.4 114.64 0.32 229.2-0.4 343.76 7.040 15.84 26.48 21.68 37.2 35.040z" />
<glyph unicode="&#xe921;" d="M78.8 679.36c54.8 95.92 161.12 164.4 273.52 158.16 114.4 6.4 229.76-24.72 325.2-87.92 32.8-24.96 76.64-11.52 114.56-18.56 41.36-0.72 78.080-26.64 119.84-22.56 30.48 2.4 65.36-7.040 81.92-34.72 11.36-17.6-2.4-36.24-9.12-52.56 14.56-12.64 36.56-23.36 37.28-45.28 3.92-27.52-23.44-42.080-42.24-55.6 3.92-74.72 2.64-149.6 2.080-224.48 0.56-34.8-19.44-67.6-50.4-83.52-62.48-34.080-126.88-64.48-189.68-98-48.88-25.68-101.76-50.32-158.4-47.68-31.84 0.48-61.44 13.76-89.6 27.44-78 37.92-160.8 65.2-237.52 106-50 26.8-104.64 43.44-155.12 69.12-62.48 31.2-72.48 123.92-30.32 175.36 137.28-53.76 271.6-114.88 406.56-174.080 28-11.040 54.56-26 84-32.8 44.88-7.68 92.4-3.6 133.36 17.28 44.8 17.44 86.72 52.64 137.12 47.44 25.2-13.44 14.32-49.6 32.24-69.36 22.48 32.64-0.88 72-27.2 93.92 16 19.6 35.92 38.88 39.040 65.44 0.64 14 8.48 43.2-15.76 32.32-6.96-23.12-7.44-49.44-23.2-69.040-21.6-26.24-54.96-37.44-85.040-50.88-42.080-17.76-81.92-42.96-127.92-49.52-32.72-6-65.2 4.8-95.76 15.36-86.64 30.88-168.96 72.080-253.2 108.72-61.2 27.28-124 50.96-184.56 79.68-39.92 21.92-41.92 74.48-34.24 114.16-21.92 7.68-45.6 16.32-56.24 38.8v18c5.52 38.64 46.48 46.72 78.8 49.36zM303.28 805.68c-77.36-13.12-145.84-62.32-189.2-126.88-7.44-10.88-13.84-28.4-2.080-38.64 22.64-23.6 52.16-38.72 79.92-55.2 79.68-43.84 162.4-82 247.12-114.88 52.72-21.84 111.040-24 167.36-22.64 121.68 14.4 225.76 85.52 320.72 158.16-7.44 22.72-15.28 47.52-35.84 62.16-48.56 36.72-112.56 42.16-171.36 40.88-37.040-0.4-69.52-20.32-104.56-29.52-11.76-7.36-27.040 2.64-24.64 16.080 18.24 19.76 46.88 22.4 70.96 30.64-104.88 67.44-234.080 105.28-358.4 79.84zM913.68 690.96c16.16-20.4 30-42.56 39.36-66.88 10.24 8.24 24.64 16.4 20.96 32.080 0.16 31.040-38.96 29.84-60.32 34.8zM26.16 638.88c-1.92-14-5.76-35.92 12.24-40.8 24.4-6.88 50.4-2.48 75.44-1.6-18.96 18.72-40 36.96-47.92 63.44-13.2-6.64-30-9.12-39.76-21.040zM897.44 547.28c32.48-10.56 78.48-16.8 101.68 13.84 7.76 26.4-17.76 39.36-38.24 46.16-13.92-26.8-40-42.64-63.44-60zM102.4 526.16c34.16-17.12 79.52-10.4 106 18.080-22 11.68-42.72 25.68-65.28 36.16-28.48 12.72-74.56-31.76-40.72-54.24zM799.12 487.2c19.12-11.92 40.4-26.16 64.32-20.16 23.76 2.48 41.68 19.28 55.76 37.28-11.12 12.64-23.84 23.84-37.92 33.28-26.88-17.6-54.72-33.68-82.16-50.4zM194.64 486.64c28.8-38.24 94.88-29.12 118.48 10.4-24.32 11.84-49.12 22.64-73.68 33.92-20.48-6.48-50.96-16.64-44.8-44.32zM328.96 473.36c-15.84-3.76-32.24-27.36-15.68-39.92 16.24-22.56 46.8-17.52 70.8-16.16 19.040 1.12 28.16 20.96 40.72 32.4-30.32 11.52-62.080 39.68-95.84 23.68zM688.96 433.36c19.68-17.36 43.76-32.72 71.44-27.92 26.96-0.96 42.88 22.88 53.52 44.080-11.84 9.040-24 17.68-36.32 26.080-29.36-14.56-59.52-27.2-88.64-42.24zM426.8 407.12c22.16-26.64 60.48-35.12 92.48-23.12 13.84 7.36 20.16 22.64 28.64 35.040-33.92 4.72-66.24 18.16-100.56 20.24-9.28-8.96-14.16-21.2-20.56-32.16zM581.040 381.6c29.68-16.64 74.24-13.28 97.6 12.88 13.92 13.84-4.48 38.32-21.84 32.24-27.84-4.080-55.84-7.92-84-5.040-2.64-14-8.24-32.32 8.24-40.080z" />
<glyph unicode="&#xe922;" d="M642.24 548.88c48 51.76 115.68 82.96 186.16 86.8 16.32-2.32 6-17.68 5.84-28.16-61.52-5.28-122.8-30.64-165.040-76.64-7.92-6.72-19.52-24.4-30.32-12.56-11.44 8-3.6 22.56 3.36 30.56z" />
<glyph unicode="&#xe923;" d="M303.28 805.68c124.32 25.44 253.52-12.4 358.4-79.84-24.080-8.24-52.72-10.88-70.96-30.64-2.4-13.44 12.88-23.44 24.64-16.080 35.040 9.2 67.52 29.12 104.56 29.52 58.8 1.28 122.8-4.16 171.36-40.88 20.56-14.64 28.4-39.44 35.84-62.16-94.96-72.64-199.040-143.76-320.72-158.16-56.32-1.36-114.64 0.8-167.36 22.64-84.72 32.88-167.44 71.040-247.12 114.88-27.76 16.48-57.28 31.6-79.92 55.2-11.76 10.24-5.36 27.76 2.080 38.64 43.36 64.56 111.84 113.76 189.2 126.88zM642.24 548.88c-6.96-8-14.8-22.56-3.36-30.56 10.8-11.84 22.4 5.84 30.32 12.56 42.24 46 103.52 71.36 165.040 76.64 0.16 10.48 10.48 25.84-5.84 28.16-70.48-3.84-138.16-35.040-186.16-86.8z" />
<glyph unicode="&#xe924;" d="M913.68 690.96c21.36-4.96 60.48-3.76 60.32-34.8 3.68-15.68-10.72-23.84-20.96-32.080-9.36 24.32-23.2 46.48-39.36 66.88z" />
<glyph unicode="&#xe925;" d="M26.16 638.88c9.76 11.92 26.56 14.4 39.76 21.040 7.92-26.48 28.96-44.72 47.92-63.44-25.040-0.88-51.040-5.28-75.44 1.6-18 4.88-14.16 26.8-12.24 40.8z" />
<glyph unicode="&#xe926;" d="M897.44 547.28c23.44 17.36 49.52 33.2 63.44 60 20.48-6.8 46-19.76 38.24-46.16-23.2-30.64-69.2-24.4-101.68-13.84z" />
<glyph unicode="&#xe927;" d="M102.4 526.16c-33.84 22.48 12.24 66.96 40.72 54.24 22.56-10.48 43.28-24.48 65.28-36.16-26.48-28.48-71.84-35.2-106-18.080z" />
<glyph unicode="&#xe928;" d="M799.12 487.2c27.44 16.72 55.28 32.8 82.16 50.4 14.080-9.44 26.8-20.64 37.92-33.28-14.080-18-32-34.8-55.76-37.28-23.92-6-45.2 8.24-64.32 20.16z" />
<glyph unicode="&#xe929;" d="M194.64 486.64c-6.16 27.68 24.32 37.84 44.8 44.32 24.56-11.28 49.36-22.080 73.68-33.92-23.6-39.52-89.68-48.64-118.48-10.4z" />
<glyph unicode="&#xe92a;" d="M328.96 473.36c33.76 16 65.52-12.16 95.84-23.68-12.56-11.44-21.68-31.28-40.72-32.4-24-1.36-54.56-6.4-70.8 16.16-16.56 12.56-0.16 36.16 15.68 39.92z" />
<glyph unicode="&#xe92b;" d="M688.96 433.36c29.12 15.040 59.28 27.68 88.64 42.24 12.32-8.4 24.48-17.040 36.32-26.080-10.64-21.2-26.56-45.040-53.52-44.080-27.68-4.8-51.76 10.56-71.44 27.92z" />
<glyph unicode="&#xe92c;" d="M426.8 407.12c6.4 10.96 11.28 23.2 20.56 32.16 34.32-2.080 66.64-15.52 100.56-20.24-8.48-12.4-14.8-27.68-28.64-35.040-32-12-70.32-3.52-92.48 23.12z" />
<glyph unicode="&#xe92d;" d="M581.040 381.6c-16.48 7.76-10.88 26.080-8.24 40.080 28.16-2.88 56.16 0.96 84 5.040 17.36 6.080 35.76-18.4 21.84-32.24-23.36-26.16-67.92-29.52-97.6-12.88z" />
<glyph unicode="&#xe92e;" glyph-name="sc_icon" d="M5.2 884.4c68.64 0.080 137.28-0.32 205.92 0.24 17.28-28.48 33.2-57.76 50.64-86.16 254.080-0.16 508.16 1.28 762.24-0.72v-391.040c-231.2-27.28-462.64-52.32-693.68-80.8 0.8-35.84 0.64-71.76 0.4-107.6 201.6 0.4 403.28-0.24 604.88 0.32-0.56-13.92-0.4-28 0.4-41.92-14.080 0.4-28.16 0.88-42.16 1.6 22.64-12.16 48.64-25.040 57.52-51.28 18.96-42.88-9.76-96.48-55.12-106.080-46.24-12.32-97.68 26.48-95.92 74.8-3.12 40 29.44 70.16 64.4 82.48-184.16-1.92-368.56-2.64-552.72 0.48 28.48-9.68 57.92-27.76 65.68-58.96 14.64-44.8-19.68-96.16-66.56-100.080-50.56-8.64-98.24 43.44-86.24 92.96 5.12 33.040 34.64 54.48 63.92 65.44-21.36-0.4-42.72-1.6-64.16-1.040 0.32 17.12-1.2 34.56 2 51.44 11.28 8.24 23.68 14.8 35.84 21.68-1.6 55.44 6.64 112.24-9.28 166.32-30.080 129.28-58.8 258.88-88.72 388.24-53.040 0-106.080 0.32-159.2-0.24 0 26.64 0.080 53.28-0.080 79.92z" />
<glyph unicode="&#xe92f;" d="M264.080 903.68c62.96 0.080 126 1.68 188.96-0.88-0.96-26-0.32-52.080-1.12-78.080-1.84-42.16-1.36-84.32-0.24-126.48-1.84 0-5.52 0.080-7.36 0.16-0.24 66.72 2.4 133.6-0.56 200.32-57.2 0.32-114.56 1.92-171.76-0.96-2.080-65.6-7.76-132.080 2.8-197.2-4.48-0.080-8.96-0.16-13.44-0.080 9.68 42.72 4.48 86.56 3.2 129.76-0.72 24.48-0.32 48.96-0.48 73.44z" />
<glyph unicode="&#xe930;" d="M597.36 212.56c8.16 80.4 76.56 144.64 153.84 160.24 92.24 22.4 200.64-24.24 237.2-114.16 29.68-67.6 5.12-150.4-51.2-196.24 27.84-14.56 56.4-27.92 83.040-44.8-52.4 0.72-105.040 8.96-157.2 4-48.56-13.52-101.040-11.84-148 7.040-72.56 28.8-126.88 104.24-117.68 183.92zM730.64 213.28c0-4.8 0-14.4 0-19.2 4.72 0.080 14.24 0.24 19.040 0.32-0.16 4.64-0.48 13.92-0.56 18.56-4.64 0.080-13.84 0.24-18.48 0.32zM786.080 213.2c0.24-4.64 0.8-14.080 1.040-18.72 4.56-0.16 13.76-0.4 18.32-0.56 0.080 4.72 0.080 14.16 0.080 18.88-4.88 0.080-14.64 0.32-19.44 0.4zM842.72 213.52c0-4.88-0.16-14.56-0.16-19.44 4.72 0.16 14.24 0.48 19.040 0.64-0.080 4.56-0.32 13.84-0.48 18.4-4.56 0.080-13.76 0.32-18.4 0.4z" />
<glyph unicode="&#xe931;" d="M272 897.76c57.2 2.88 114.56 1.28 171.76 0.96 2.96-66.72 0.32-133.6 0.56-200.32 1.84-0.080 5.52-0.16 7.36-0.16-1.12 42.16-1.6 84.32 0.24 126.48 105.52-9.12 181.92-100.88 214.32-195.36 18.16-0.32 36.4-0.56 54.48-2.64 1.28-33.68 0.24-67.36 0.8-101.040-34.32-0.56-68.64 0.4-102.88-0.24l-2.24-5.52c-0.72-16.16 0-32.32-0.32-48.56 17.12-9.52 42.64-22.56 36.88-46.32-9.68-37.6-51.84-48.8-70.32-79.84-50.4-74.72-138.080-129.76-230.48-121.6-87.040 6.4-157.36 70.56-202.080 141.28-11.12 28.72-53.68 27.44-60 59.52 2.4 31.2 35.76 45.040 58.88 59.68 0 12 0 23.92 0.080 35.92l0.080 5.6c-37.6 0.080-75.2-0.88-112.72 0.88 1.12 32.4 0.080 64.8 2.32 97.12 18.16-0.8 36.48-1.040 54.64 1.12 27.44 85.84 79.92 177.12 171.2 205.52 1.28-43.2 6.48-87.040-3.2-129.76 4.48-0.080 8.96 0 13.44 0.080-10.56 65.12-4.88 131.6-2.8 197.2z" />
<glyph unicode="&#xe932;" d="M0 12.64c18.72 92.080 92.64 158 161.6 215.52 37.6-55.040 107.52-72.48 170-79.36 77.92-5.92 168.24 7.52 218.88 73.52 15.76-2.88 31.36-6.16 46.88-9.76-9.2-79.68 45.12-155.12 117.68-183.92 2-8.48 4.16-17.040 6.16-25.6-240.4 0.56-480.8-0.4-721.2 0.48v9.12z" />
<glyph unicode="&#xe933;" d="M730.64 213.28c4.64-0.080 13.84-0.24 18.48-0.32 0.080-4.64 0.4-13.92 0.56-18.56-4.8-0.080-14.32-0.24-19.040-0.32 0 4.8 0 14.4 0 19.2z" />
<glyph unicode="&#xe934;" d="M786.080 213.2c4.8-0.080 14.56-0.32 19.44-0.4 0-4.72 0-14.16-0.080-18.88-4.56 0.16-13.76 0.4-18.32 0.56-0.24 4.64-0.8 14.080-1.040 18.72z" />
<glyph unicode="&#xe935;" d="M842.72 213.52c4.64-0.080 13.84-0.32 18.4-0.4 0.16-4.56 0.4-13.84 0.48-18.4-4.8-0.16-14.32-0.48-19.040-0.64 0 4.88 0.16 14.56 0.16 19.44z" />
<glyph unicode="&#xe936;" d="M32 624.72l6.72-1.12c-2.24-32.32-1.2-64.72-2.32-97.12 37.52-1.76 75.12-0.8 112.72-0.88l-0.080-5.6c-38.96 0.080-78-0.24-116.96 0.080-0.32 34.88 0 69.76-0.080 104.64z" />
<glyph unicode="&#xe937;" d="M618.64 525.44c34.24 0.64 68.56-0.32 102.88 0.24l-0.72-5.68c-34.8 0-69.6 0-104.4-0.080l2.24 5.52z" />
<glyph unicode="&#xe938;" glyph-name="wd_icon" d="M444.4 946.16c72.72 24.16 157.44 11.84 218.32-35.52 83.84-60.64 117.28-179.76 77.36-275.28-39.84-104.32-160.4-169.28-269.36-143.28-91.68 18.32-167.6 96.080-183.68 188.32-22.8 111.68 49.040 231.44 157.36 265.76zM513.52 317.6c88.080 58.32 176.96 115.36 264.64 174.16 84.96-53.76 164.72-132.080 182.88-235.040 20.24-118.16-37.44-235.6-115.92-320.72h-648.24c-46.24 39.36-84.56 88.56-111.92 142.8-33.6 66.4-37.36 148.4-3.68 215.52 41.44 86.080 119.92 146.48 200.64 193.6 78-55.76 154.72-113.2 231.6-170.32z" />
<glyph unicode="&#xe939;" glyph-name="xgt_icon" d="M85.44 960h526.32c46.64 28.56 75.12 0.64 97.68-26.56 79.52-99.040 160.16-197.040 239.92-295.76 0.8-209.84 0-419.68 0.4-629.6 0.4-24 0.24-48.16-2.56-72.080h-861.92c-1.84 10.48-2.88 21.040-3.2 31.6 0.24 304.16 0.080 608.24 0.080 912.32 0.24 26.72-1.92 53.68 3.28 80.080zM95.040 944.24c0-330.96 0-661.84 0.080-992.8 280.56 0 561.12 0 841.68 0-0.080 222 0.080 444-0.080 666-105.040 0.56-210 0.72-315.040-0.080-0.24 108.96 0 217.92-0.080 326.96-175.52 0.080-351.040-0.080-526.56-0.080zM291.92 578.64c51.76 24.72 119.12-5.040 137.28-59.040 21.92-53.52-13.76-119.52-69.36-132.96-51.52-15.6-111.6 17.68-125.28 69.92-15.6 47.6 11.6 102.88 57.36 122.080zM407.2 216.8c73.76 75.28 149.2 148.8 223.44 223.52 59.84-61.2 121.28-120.88 181.52-181.84-0.64-61.52 0.4-123.040-0.64-184.64-195.2 1.040-390.4-5.36-585.6-4.32 0.72 39.52 0.4 79.040 0.24 118.56 34.4 35.12 70.32 68.8 103.92 104.8 26.48-24.56 51.36-50.72 77.12-76.080z" />
<glyph unicode="&#xe93a;" d="M2.72 496.32c167.6 132.56 335.68 264.4 502.56 397.92 148.96-116.56 298-233.12 446.96-349.68 23.52-17.84 45.28-38.32 71.76-51.84v-10.32c-14-16.64-24.16-41.68-48.32-45.36-18.56-0.32-33.2 13.040-47.36 23.2-137.92 108.96-276.48 217.040-415.36 324.72-138-109.12-277.84-215.76-416.080-324.64-22.64-17.84-46-34.72-68.8-52.4-8.96 29.28-16.72 58.96-25.36 88.4z" />
<glyph unicode="&#xe93b;" d="M96.88 460.32c138.24 108.88 278.080 215.52 416.080 324.64 138.88-107.68 277.44-215.76 415.36-324.72 1.2-132.56 0.48-265.2 0.4-397.76 28.64 0 57.28 0 85.92-0.16-0.16-20.080-0.16-40.24-0.080-60.4-338.24 0.48-676.4-0.96-1014.56 0.72v63.52c32.080 0.56 64.16 0.48 96.24 0.4 1.12 131.28-0.16 262.56 0.64 393.76zM483.36 595.28c-56.56-15.6-75.44-96.4-30.56-134.72 40-41.2 116.88-19.92 131.2 35.2 21.12 58.16-42.88 121.040-100.64 99.52zM366.4 366.72c-0.16-89.2 0-178.48 0-267.76-12.16-0.32-24.4-0.64-36.56-1.040 1.040-28.24 0.32-56.48 1.92-84.72 121.12 2 242.24 0.24 363.36 0.96-0.48 28-0.56 56.080 0.32 84.080-11.76 0.56-23.6 1.040-35.36 1.6 1.84 88.88-0.16 177.76 1.12 266.56-98.24 0.56-196.56-0.080-294.8 0.32z" />
<glyph unicode="&#xe93c;" d="M483.36 595.28c57.76 21.52 121.76-41.36 100.64-99.52-14.32-55.12-91.2-76.4-131.2-35.2-44.88 38.32-26 119.12 30.56 134.72z" />
<glyph unicode="&#xe93d;" d="M366.4 366.72c98.24-0.4 196.56 0.24 294.8-0.32-1.28-88.8 0.72-177.68-1.12-266.56 11.76-0.56 23.6-1.040 35.36-1.6-0.88-28-0.8-56.080-0.32-84.080-121.12-0.72-242.24 1.040-363.36-0.96-1.6 28.24-0.88 56.48-1.92 84.72 12.16 0.4 24.4 0.72 36.56 1.040 0 89.28-0.16 178.56 0 267.76z" />
<glyph unicode="&#xe93e;" d="M148.48 790.16c291.84-0.8 583.68 1.12 875.52-0.96v-603.36c7.2-50.48-37.040-96.48-87.36-87.76-256.16 0.4-512.4 0.16-768.56 0.080-9.44-1.040-17.040 2.080-22.88 9.36-34.4-2.8-69.040-3.76-103.44-1.040-22.24 1.68-35.92 22.48-41.76 42.080v578.48c49.68 2.080 99.92 4.88 149.36-2.24-0.72 21.76-0.88 43.6-0.88 65.36zM654.48 678.24c-0.4-21.52-0.88-43.040-0.48-64.64 86.16 0 172.32-0.16 258.56 0.080 0.080 21.36 0 42.72-0.24 64.080-86 0.64-171.92-0.24-257.84 0.48zM280.64 661.76c-3.36-101.12-0.64-202.4-1.36-303.6 96.56-0.24 193.2-0.16 289.76 0-0.4 101.040 1.12 202.16-0.72 303.28-95.92 0.080-191.84-0.64-287.68 0.32zM654 546.8c-0.080-21.44-0.080-42.96 0.080-64.48 86.080 0.32 172.16-0.24 258.24 0.32 0.24 21.36 0.32 42.72 0.24 64-86.24 0.4-172.4 0.080-258.56 0.16zM653.52 412.16c0.32-21.040 0.48-42.16 0.48-63.2 85.84-0.72 171.68 0.32 257.52-0.56 1.2 21.44 1.6 43.040 0.4 64.56-86.080-0.4-172.32 1.2-258.4-0.8zM253.52 281.84c0-21.52 0-43.040 0.16-64.56 111.28 0.16 222.56 0.32 333.84-0.080 0.16 21.52 0.24 43.12 0.24 64.64-111.44 0.080-222.8 0.080-334.24 0zM654 281.84c-0.080-21.52-0.080-42.96 0.080-64.48 86.16 0.32 172.24-0.32 258.4 0.32 0.16 21.36 0.16 42.72 0.080 64.080-86.24 0.32-172.4 0.16-258.56 0.080z" />
<glyph unicode="&#xe93f;" d="M654.48 678.24c85.92-0.72 171.84 0.16 257.84-0.48 0.24-21.36 0.32-42.72 0.24-64.080-86.24-0.24-172.4-0.080-258.56-0.080-0.4 21.6 0.080 43.12 0.48 64.64z" />
<glyph unicode="&#xe940;" d="M280.64 661.76c95.84-0.96 191.76-0.24 287.68-0.32 1.84-101.12 0.32-202.24 0.72-303.28-96.56-0.16-193.2-0.24-289.76 0 0.72 101.2-2 202.48 1.36 303.6z" />
<glyph unicode="&#xe941;" d="M654 546.8c86.16-0.080 172.32 0.24 258.56-0.16 0.080-21.28 0-42.64-0.24-64-86.080-0.56-172.16 0-258.24-0.32-0.16 21.52-0.16 43.040-0.080 64.48z" />
<glyph unicode="&#xe942;" d="M653.52 412.16c86.080 2 172.32 0.4 258.4 0.8 1.2-21.52 0.8-43.12-0.4-64.56-85.84 0.88-171.68-0.16-257.52 0.56 0 21.040-0.16 42.16-0.48 63.2z" />
<glyph unicode="&#xe943;" d="M253.52 281.84c111.44 0.080 222.8 0.080 334.24 0 0-21.52-0.080-43.12-0.24-64.64-111.28 0.4-222.56 0.24-333.84 0.080-0.16 21.52-0.16 43.040-0.16 64.56z" />
<glyph unicode="&#xe944;" d="M654 281.84c86.16 0.080 172.32 0.24 258.56-0.080 0.080-21.36 0.080-42.72-0.080-64.080-86.16-0.64-172.24 0-258.4-0.32-0.16 21.52-0.16 42.96-0.080 64.48z" />
<glyph unicode="&#xe945;" d="M519.68 819.52c32.56 46.32 71.76 94.56 128.24 111.040 35.6 10.4 72.8-7.68 95.2-35.2 41.2-49.52 59.040-112.8 77.6-173.2 51.52 1.12 103.040 0.080 154.56 0.72 29.68-27.68 43.6-67.28 48.72-106.72v-559.28c-3.44-48.88-41.28-106-95.76-102.4-266.8 0.4-533.68 0-800.48 0.16-51.44 1.36-109.92 32-122.8 84.72-1.12 192.24 0 384.64-0.56 576.96-1.040 31.84 18.32 61.52 44.32 78.64 43.76 25.68 97.52 15.28 145.92 21.040 13.28 61.2 33.12 125.28 79.52 169.84 26.32 26 65.84 37.28 101.84 28 57.2-13.76 102.64-54.32 143.68-94.32zM346.96 811.6c-42.32-11.44-54.48-73.12-18.48-98.96 32.56-29.2 90-3.76 91.68 39.36 5.12 38.72-36.4 72.16-73.2 59.6zM643.6 811.44c-41.6-11.36-54.16-72.96-18.48-98.4 30.64-28 84-7.36 91.28 32.4 10.4 40.48-33.44 80.080-72.8 66zM337.84 407.040c-26.080 25.6-53.040 50.32-80.48 74.56 36.16 43.44 72.96 86.32 110.080 128.96-88.72-0.32-177.28-3.28-266-3.28-0.4-99.2-0.16-198.32-0.080-297.44 271.68 0.16 543.36 0.24 815.12-0.080 0.080 102.48 0.56 204.96-0.24 307.44-87.2-0.080-174.48-0.32-261.68 0.080 31.92-40.88 66.4-79.68 99.84-119.36-24.72-22.32-50.8-43.12-74.88-66.080-60.8 65.52-120.96 131.6-181.76 197.040-53.36-73.92-105.6-148.64-159.92-221.84zM101.36 157.52c-0.16-35.44-0.16-70.96 0-106.4 271.6 0.4 543.28 0.8 814.96-0.24 0.48 35.6 0.48 71.28-0.080 106.88-271.6-1.12-543.2-0.8-814.88-0.24z" />
<glyph unicode="&#xe946;" d="M346.96 811.6c36.8 12.56 78.32-20.88 73.2-59.6-1.68-43.12-59.12-68.56-91.68-39.36-36 25.84-23.84 87.52 18.48 98.96z" />
<glyph unicode="&#xe947;" d="M643.6 811.44c39.36 14.080 83.2-25.52 72.8-66-7.28-39.76-60.64-60.4-91.28-32.4-35.68 25.44-23.12 87.040 18.48 98.4z" />
<glyph unicode="&#xe948;" d="M337.84 407.040c54.32 73.2 106.56 147.92 159.92 221.84 60.8-65.44 120.96-131.52 181.76-197.040 24.080 22.96 50.16 43.76 74.88 66.080-33.44 39.68-67.92 78.48-99.84 119.36 87.2-0.4 174.48-0.16 261.68-0.080 0.8-102.48 0.32-204.96 0.24-307.44-271.76 0.32-543.44 0.24-815.12 0.080-0.080 99.12-0.32 198.24 0.080 297.44 88.72 0 177.28 2.96 266 3.28-37.12-42.64-73.92-85.52-110.080-128.96 27.44-24.24 54.4-48.96 80.48-74.56z" />
<glyph unicode="&#xe949;" d="M101.36 157.52c271.68-0.56 543.28-0.88 814.88 0.24 0.56-35.6 0.56-71.28 0.080-106.88-271.68 1.040-543.36 0.64-814.96 0.24-0.16 35.44-0.16 70.96 0 106.4z" />
<glyph unicode="&#xe94a;" glyph-name="zgr_icon" d="M403.76 957.36c72 0.96 143.92 0 215.92 0.48 0.72-30.64 0.64-61.2-0.32-91.84 119.52-12.16 203.68-115.68 242.32-222.080 20.080-1.44 42.32 5.28 60.96-4.080 4.4-39.44 1.44-79.84 1.2-119.68-40.24-0.24-80.48 1.36-120.64-0.96 0.56-17.52-0.080-35.040 0.96-52.56 17.28-12.8 46-23.6 41.12-50.56-7.52-37.76-46.48-54.24-70.32-80.080-35.92-53.44-83.52-101.12-143.040-127.52-70.24-31.92-156.4-32-223.92 6.96-60.72 33.52-105.92 88.56-142.64 146.24-18.48 17.12-54.24 23.52-56.16 54 4.8 33.28 39.68 48.88 65.68 63.92 0.32 13.2 0.88 26.4 1.44 39.52-44.4 2.56-88.88 0.56-133.36 1.2-0.16 40.080-0.16 80.080 0 120.080 22.88 1.92 47.68-4.080 69.44 2.64 32.88 96.16 91.84 194.080 192.080 230.56-0.88 27.92-0.64 55.84-0.72 83.76zM127.12 8.24c36.8 74.24 99.68 130.8 162.4 182.96 44.16-63.92 125.6-83.52 198.48-90.4 85.6-5.68 184.96 10.48 240.32 82.96 41.36-2.4 81.84-18.8 110.64-49.040 51.44-53.28 71.84-127.6 84-198.72h-816c2.96 24.96 8.32 49.84 20.16 72.24z" />
<glyph unicode="&#xe94b;" d="M392.48 879.68c33.36 20.88 70.24 39.6 91.68 74.24-0.080-6.16-0.32-18.32-0.4-24.4 12.16 8.16 21.6 20.080 35.12 26.56-2.96-6.32-8.96-19.040-11.92-25.36 8.24 2.8 24.8 8.4 33.12 11.12l0.88-12.72c4.080 1.52 12.24 4.4 16.32 5.84l-2.56-10.32c19.6-15.52 50.48-12.56 76.4-15.2-7.52-2.72-22.48-8.16-30-10.88 11.6 0.96 34.8 2.88 46.4 3.84-4.080-4.4-12.32-13.28-16.48-17.68 11.040-0.8 33.12-2.4 44.16-3.2-6.16-3.12-18.56-9.28-24.8-12.32 6.56-2.96 19.68-8.88 26.24-11.84-11.44-17.52 15.36-15.76 6.8-32.56 22-27.040 26.64-63.68 40.4-93.6-5.12-0.16-15.44-0.56-20.56-0.8 16.8-6.24 15.6-30.56 3.28-41.36-3.36-13.52 3.2-43.12-18.88-36.96-1.76-13.92 19.6-9.2 23.76-21.12 26.080-35.68-4.080-74.96-14.8-110.080-3.68-15.12-23.040-16.96-25.92-32-4.8-14.88-12-28.8-21.52-41.2-13.52-15.92-6.56-37.36-8.56-56.24 8.32-16.4 23.2-28.64 34.88-42.8 0.72-17.92 10.48-34.4 8.4-52.56-15.84-28.72-30-59.68-51.36-84.48-25.84 22.56-55.84 39.68-83.2 60.4 19.84 21.36 41.28 41.44 60.24 63.6-0.16 20-0.88 39.92-0.48 59.84-37.68-37.12-96.4-41.84-144.8-26.16-19.28 5.040-30.32 22.32-45.6 33.44 0.24-23.040-2.32-46.56 1.84-69.36 15.36-22.32 38.080-38.24 53.6-60.48-27.92-20.16-55.28-41.2-82.88-61.76-16.16 28.96-33.12 57.44-50.24 85.92 3.44 15.92 7.2 31.76 9.12 47.92 5.44 29.6 42.8 46.24 36.16 78.96 4.88 25.2-19.28 42.16-23.6 65.52-2.080 15.68-23.040 16.32-26.24 32.16-6.56 27.52-31.6 48.48-30.24 78.080-1.84 20.88 14.4 37.92 32.72 45.12-33.52 78.56-13.2 179.92 53.52 234.88zM407.36 705.76c-8.72-11.52-18.16-22.32-28.48-32.48l0.8 29.76c-16.16-36.56-18.32-79.44-4.48-117.52-15.28 6.96-18.96 24.96-32.56 33.68-14.64-33.12 21.92-53.92 24.080-85.040 4.4-1.2 13.28-3.68 17.68-4.96 11.6-48.32 41.6-90.96 79.44-122.48 33.36-18.16 78.88-18.24 110.64 3.6 35.36 31.44 62.24 73.2 75.2 118.8 3.84 1.2 11.6 3.6 15.44 4.8 9.44 28.080 32.88 57.12 16.8 87.52-4.48-16.080-9.2-32.080-15.52-47.44-3.84 24.48 2.64 49.2-1.52 73.68-7.040 19.36-17.52 37.84-32.56 52.080-19.36 3.84-22.8-19.040-17.44-32.64-13.92 7.68-27.6 16.16-42.88 21.040 4.4-8.080 13.28-24.24 17.76-32.32-9.36 7.6-28 22.88-37.36 30.56 0.96-6.080 2.8-18.24 3.68-24.24-11.040-0.96-22.16 0.48-33.12-2.48-14.72 20.64-37.2 33.040-58.24 46.24 4.72-9.12 14.24-27.44 18.96-36.56-9.92 0.8-19.84 2.88-28.72-3.2-10.24 9.76-19.2 20.8-29.52 30.56 8 9.92-13.2 20.56-18.080 9.040z" />
<glyph unicode="&#xe94c;" d="M200.64 269.84c42.64 16.8 82.64 39.36 124.72 57.44-0.88-14.16-9.52-29.84-0.72-43.2 18.64-35.28 41.76-68 59.76-103.68 41.36 24.4 74.96 59.84 115.6 85.12 1.12-109.76 1.040-219.68 0-329.52h-380.080c-4 2.32-12.080 7.040-16.080 9.44-7.52 57.2-1.040 116.64-3.28 174.72-4.56 64.96 40 127.2 100.080 149.68z" />
<glyph unicode="&#xe94d;" d="M700.88 326.64c46.4-19.68 91.92-41.28 137.84-62.16 49.040-23.28 85.68-73.12 87.76-128.080 1.040-58.8 0.24-117.68 0.48-176.48 1.68-12.24-10.64-23.36-22.32-22.96-123.76-0.88-247.52 1.040-371.2-0.96h-10.080c-0.64 109.52-0.56 219.12 0.64 328.56 37.68-29.36 78.48-54.48 115.92-84.080 25.2 34.8 46.88 76 68.4 114.48-1.84 7.92-5.6 23.76-7.44 31.68z" />
<glyph unicode="&#xe94e;" d="M407.36 705.76c4.88 11.52 26.080 0.88 18.080-9.040 10.32-9.76 19.28-20.8 29.52-30.56 8.88 6.080 18.8 4 28.72 3.2-4.72 9.12-14.24 27.44-18.96 36.56 21.040-13.2 43.52-25.6 58.24-46.24 10.96 2.96 22.080 1.52 33.12 2.48-0.88 6-2.72 18.16-3.68 24.24 9.36-7.68 28-22.96 37.36-30.56-4.48 8.080-13.36 24.24-17.76 32.32 15.28-4.88 28.96-13.36 42.88-21.040-5.36 13.6-1.92 36.48 17.44 32.64 15.040-14.24 25.52-32.72 32.56-52.080 4.16-24.48-2.32-49.2 1.52-73.68 6.32 15.36 11.040 31.36 15.52 47.44 16.080-30.4-7.36-59.44-16.8-87.52-3.84-1.2-11.6-3.6-15.44-4.8-12.96-45.6-39.84-87.36-75.2-118.8-31.76-21.84-77.28-21.76-110.64-3.6-37.84 31.52-67.84 74.16-79.44 122.48-4.4 1.28-13.28 3.76-17.68 4.96-2.16 31.12-38.72 51.92-24.080 85.040 13.6-8.72 17.28-26.72 32.56-33.68-13.84 38.080-11.68 80.96 4.48 117.52l-0.8-29.76c10.32 10.16 19.76 20.96 28.48 32.48z" />
<glyph unicode="&#xe94f;" d="M11.84 789.44c13.84 37.12 51.6 64 91.44 63.6 272.32 0.16 544.64 0.24 816.88 0 49.84 0.72 95.040-42.72 97.6-92.24 1.2-31.36 0.080-62.88 0.32-94.32-337.76-0.080-675.6 0.080-1013.36 0 2.8 40.8-6.080 83.44 7.12 122.96z" />
<glyph unicode="&#xe950;" d="M4.64 449.52c337.84-0.32 675.68-0.080 1013.44-0.080 0.080-101.76 0.24-203.44 0-305.2 1.52-52.48-45.44-100.72-98.080-100-271.84-0.4-543.76-0.24-815.6-0.080-53.28-1.28-101.040 47.2-99.36 100.4-0.48 101.68 0.32 203.36-0.4 304.96z" />
<glyph unicode="&#xe951;" d="M4.72 666.48c337.76 0.080 675.6-0.080 1013.36 0-0.16-72.32-0.16-144.72 0-217.040-337.76 0-675.6-0.24-1013.44 0.080 0 72.32-0.080 144.64 0.080 216.96z" />
<glyph unicode="&#xe952;" d="M296.24 903.68c186.48-1.76 372.96 0.72 559.36-1.28 34-9.36 47.2-47.52 63.040-75.52-77.52-222.56-152.080-446.16-228.4-669.12-3.92-8.24-4.56-23.92-18.080-20.32-197.44 0.32-394.96 0.080-592.4 0.16-0.88-35.84 13.84-72.8 44.72-92.64 17.76-4.16 36.4-1.12 54.56-1.36 190.48 2.4 380.88 6.64 571.28 9.52 67.52 200.16 135.040 400.24 202.72 600.4 8.080 21.6 14.72 44 25.6 64.48 16.64-23.28 26.4-50.96 45.36-72.8v-3.52c-1.28 1.040-3.76 3.2-4.96 4.32-57.28-188.32-116.24-376.080-173.6-564.32-7.28-22.48-11.12-48.88-31.28-64.080-26.48-20.96-60.88-30-94.16-30.48-189.6-0.080-379.12 0.16-568.64-0.16-64.8-1.12-125.12 47.52-140.080 110.24-13.28 56.88-11.12 119.76 14.96 172.96 90.32 210.96 179.12 422.72 270 633.52zM351.92 668.16c131.2 1.040 262.4-0.72 393.6 0.96 5.84 23.76 12.24 47.44 19.12 71.040-127.12-0.56-254.16-0.32-381.28-0.16-10.56-23.92-21.6-47.6-31.44-71.84zM302.64 514.56c130.64 0.080 261.28 0.32 391.92-0.16 6.88 23.92 13.28 47.92 20.4 71.76-126.96-0.24-253.84-0.64-380.72 0.16-11.6-23.44-22.48-47.2-31.6-71.76z" />
<glyph unicode="&#xe953;" d="M351.92 668.16c9.84 24.24 20.88 47.92 31.44 71.84 127.12-0.16 254.16-0.4 381.28 0.16-6.88-23.6-13.28-47.28-19.12-71.040-131.2-1.68-262.4 0.080-393.6-0.96z" />
<glyph unicode="&#xe954;" d="M302.64 514.56c9.12 24.56 20 48.32 31.6 71.76 126.88-0.8 253.76-0.4 380.72-0.16-7.12-23.84-13.52-47.84-20.4-71.76-130.64 0.48-261.28 0.24-391.92 0.16z" />
<glyph unicode="&#xe955;" d="M495.44 944.96c9.36 7.2 19.44 16.24 32.24 13.92 16.72-9.12 30.4-22.48 44.72-34.64 135.2-115.36 270.88-230.080 405.52-346 13.12-11.52 27.6-24.080 30.72-42.32-3.84-17.36-22.4-20.56-36.24-26.56-0.24-175.2-0.080-350.4-0.080-525.6 2.56-28.48-29.12-40.48-50.96-47.76h-805.12c-24 2.88-49.76 20.72-47.040 47.6 0 175.28-0.16 350.48 0.080 525.68-13.84 5.2-30.16 7.36-39.84 19.76-5.52 20.48 10.72 37.040 24.96 49.040 147.12 122.16 294.16 244.4 441.040 366.88zM177.52 585.6c-0.16-15.6-0.16-31.2-0.080-46.88 228.24 0.32 456.48 0.4 684.72 0 0.080 15.68 0 31.28-0.080 46.88-228.16-0.080-456.32-0.080-684.56 0zM164.72 467.92c0-64.24 0.080-128.48 0-192.72 67.2 0.080 134.48 0.32 201.76-0.16 0.4 64.24 0 128.56 0.16 192.8-67.28 0-134.64-0.24-201.92 0.080zM412.96 467.84c0.16-64.16 0.24-128.4 0-192.56 67.36-0.080 134.64 0.24 202-0.16 0.4 64.24 0.16 128.48 0.16 192.72-67.36-0.080-134.8-0.080-202.16 0zM665.44 467.92c0.080-64.32-0.24-128.56 0.16-192.88 67.28 0.48 134.48 0.24 201.76 0.16-0.080 64.24 0 128.48 0 192.72-67.28-0.24-134.64-0.16-201.92 0zM164.64 221.2c0.16-64.32 0.16-128.72 0-193.12 67.28 0 134.64 0.16 201.92-0.16 0.080 64.48 0.24 128.96-0.080 193.44-67.28-0.48-134.56-0.24-201.84-0.16zM412.88 221.12c0.32-64.32 0.4-128.64 0-192.96 67.36-0.16 134.72 0.16 202.16-0.24 0.16 64.48 0.24 128.96-0.080 193.44-67.36-0.56-134.72-0.080-202.080-0.24zM665.6 221.36c-0.32-64.48-0.16-128.96-0.080-193.44 67.28 0.32 134.64 0.24 201.92 0.080-0.16 64.4-0.16 128.88 0 193.28-67.28-0.16-134.56-0.4-201.84 0.080z" />
<glyph unicode="&#xe956;" d="M177.52 585.6c228.24-0.080 456.4-0.080 684.56 0 0.080-15.6 0.16-31.2 0.080-46.88-228.24 0.4-456.48 0.32-684.72 0-0.080 15.68-0.080 31.28 0.080 46.88z" />
<glyph unicode="&#xe957;" d="M164.72 467.92c67.28-0.32 134.64-0.080 201.92-0.080-0.16-64.24 0.24-128.56-0.16-192.8-67.28 0.48-134.56 0.24-201.76 0.16 0.080 64.24 0 128.48 0 192.72z" />
<glyph unicode="&#xe958;" d="M412.96 467.84c67.36-0.080 134.8-0.080 202.16 0 0-64.24 0.24-128.48-0.16-192.72-67.36 0.4-134.64 0.080-202 0.16 0.24 64.16 0.16 128.4 0 192.56z" />
<glyph unicode="&#xe959;" d="M665.44 467.92c67.28-0.16 134.64-0.24 201.92 0 0-64.24-0.080-128.48 0-192.72-67.28 0.080-134.48 0.32-201.76-0.16-0.4 64.32-0.080 128.56-0.16 192.88z" />
<glyph unicode="&#xe95a;" d="M164.64 221.2c67.28-0.080 134.56-0.32 201.84 0.16 0.32-64.48 0.16-128.96 0.080-193.44-67.28 0.32-134.64 0.16-201.92 0.16 0.16 64.4 0.16 128.8 0 193.12z" />
<glyph unicode="&#xe95b;" d="M412.88 221.12c67.36 0.16 134.72-0.32 202.080 0.24 0.32-64.48 0.24-128.96 0.080-193.44-67.44 0.4-134.8 0.080-202.16 0.24 0.4 64.32 0.32 128.64 0 192.96z" />
<glyph unicode="&#xe95c;" d="M665.6 221.36c67.28-0.48 134.56-0.24 201.84-0.080-0.16-64.4-0.16-128.88 0-193.28-67.28 0.16-134.64 0.24-201.92-0.080-0.080 64.48-0.24 128.96 0.080 193.44z" />
<glyph unicode="&#xe95d;" d="M257.2 839.84c47.6-0.96 95.2-0.24 142.8-0.4-11.68-68.16-40.16-131.68-55.36-198.96-8.080-31.12-15.76-64.56-39.52-87.92-98.48 1.2-196.96 1.36-295.44-0.16 30.96 45.040 66.96 86.32 102 128.080 47.040 54.4 92.8 110.32 145.52 159.36z" />
<glyph unicode="&#xe95e;" d="M432.32 838.64c53.68 0.72 107.28-0.080 160.96 1.28 23.76-95.52 47.84-190.96 70.96-286.64-102.24 0.56-204.4 0.8-306.56 0.24 25.2 94.96 50.4 189.92 74.64 285.12z" />
<glyph unicode="&#xe95f;" d="M624.080 839.44c47.76 0.16 95.52-0.56 143.36 0.4 47.28-41.12 86.48-90.48 127.040-138 40.48-49.12 81.6-97.92 119.040-149.44-79.2 1.12-158.48 2.96-237.52-2.56-20.88-0.4-44.24-1.36-62 11.6-12.48 10.88-15.68 28.080-21.2 42.88-24.72 77.76-56.88 153.92-68.72 235.12z" />
<glyph unicode="&#xe960;" d="M10.72 312.96c0.48 69.92-0.4 139.76 0.48 209.68 100.96-0.88 201.92-0.32 302.88-0.32-0.24-69.84-0.080-139.68-0.16-209.52-101.040 0.8-202.16 0.4-303.2 0.16zM132.32 492.080c24.16-23.12 56.96-33.84 81.2-56.8-2.56 1.44-7.52 4.24-10.080 5.6 10.88-22.16 33.040-35.12 49.36-52.8 2.56-0.24 7.52-0.8 10.080-1.040 3.68-1.12 11.040-3.2 14.72-4.24-22.56 60-82.24 102.48-145.28 109.28zM234.72 489.68c12.64-12.96 25.44-25.68 38.4-38.24 0.64 13.36 1.28 26.72 1.92 40.080-13.44-0.64-26.88-1.28-40.32-1.84zM46.32 483.68c31.6-42.8 90.4-48.56 124.72-88.080 18.8-21.76 41.12-42.32 71.28-44.88-20 31.44-48.64 56-77.92 78.48-34.96 26.080-74 49.12-118.080 54.48zM47.76 430.080c20.56-46.48 70.72-70.16 118.16-79.36-27.6 40.4-71.76 66.16-118.16 79.36z" />
<glyph unicode="&#xe961;" d="M360.72 522.24c100.8-0.080 201.68 0 302.48 0-0.32-69.76 0.16-139.6-0.24-209.36-100.72 0.56-201.36 0.4-302.080 0.080-0.16 69.76 0.080 139.52-0.16 209.28zM483.12 492.96c22.16-19.28 47.76-33.92 71.92-50.4 29.6-19.68 46.64-53.92 79.52-69.28-17.68 67.52-85.76 109.76-151.44 119.68zM398.080 484.24c27.44-41.76 82.4-47.6 116-82.4 22.16-22.88 45.040-50.4 79.92-50.48-16.4 33.52-46.080 57.6-76.080 78.48-36.4 24.8-76.32 45.68-119.84 54.4zM421.44 398.24c33.12-12.4 55.84-46.64 93.36-47.040-27.44 38.96-70.56 62.64-114.24 79.2 1.52-13.92 5.92-27.84 20.88-32.16z" />
<glyph unicode="&#xe962;" d="M709.84 522.32c100.96 0 202-0.48 302.96 0.24 0.56-69.84 0-139.76 0.32-209.68-101.040 0.4-202.080 0.64-303.12-0.080-0.16 69.84 0.16 139.68-0.16 209.52zM854.72 480.4c30.64-26 68.72-43.36 94.32-75.040 10.4-11.76 16.8-30.080 35.36-29.84-16.4 45.84-53.68 82-96.8 103.2-9.84 2.72-24.4 10.4-32.88 1.68zM746.56 484.080c30.080-40.88 84.96-47.2 120.64-81.12 22.88-21.2 46.080-43.12 75.92-54.080-46.64 65.44-115.92 120.96-196.56 135.2zM745.76 429.12c8.72-32 44.56-36.48 66.8-55.68 14.8-13.12 32.56-21.68 52.64-22.16-29.84 38.16-72.080 66.8-119.44 77.84z" />
<glyph unicode="&#xe963;" d="M0 267.2c11.92 8.24 26.48 7.2 40.16 7.44 91.28-0.64 182.64-0.32 273.92-0.24-0.24-72.4-0.080-144.72-0.080-217.12-104.64 1.2-209.36-1.040-314 1.2v208.72zM29.68 233.52c5.92-12.56 12.8-24.56 19.92-36.48-9.44-9.68-15.68-23.12-5.92-34.88 21.2-23.12 55.92-26.080 77.76-48.8 11.68-12.8 27.68-17.68 44.72-17.2-20.16 24-44.32 44.64-71.36 60.48 9.76 6.4 19.44 12.8 29.2 19.2 45.44-20.24 73.84-66.16 121.68-82.48-10.72 22.8-26.080 43.28-45.92 59.040-46.88 38.32-101.84 66.64-159.92 83.84l5.84-13.76c-4 2.72-12 8.24-16 11.040zM141.6 236.4c14.72-14.8 32.080-26.4 50.24-36.48 34.4-19.36 57.040-52.88 85.36-79.36 1.28 33.6-25.84 55.52-48.56 75.52-25.040 20.32-52.16 43.92-87.040 40.32z" />
<glyph unicode="&#xe964;" d="M360.72 274.32c100.8 0 201.68 0 302.56 0-0.4-72.32 0.080-144.72-0.32-217.040-100.64 0.56-201.36 0.4-302.080 0.080-0.16 72.32 0.080 144.64-0.16 216.96zM492.4 236.96c44.080-36.8 87.6-74.48 133.44-109.12-19.36 55.84-72.32 107.12-133.44 109.12zM396.64 228.4c28.8-38.96 80.32-46.24 115.68-76.8 25.36-21.44 48.64-47.44 81.6-57.2-14.16 33.040-42.080 56.96-70.4 77.68-37.84 27.2-79.92 50.64-126.88 56.32zM388.8 181.84c4.48-18 14.32-33.84 32.88-39.36 36.080-11.6 59.68-51.92 100.96-46.080-35.28 40.4-82.96 69.2-133.84 85.44z" />
<glyph unicode="&#xe965;" d="M709.84 274.4c104.72-0.32 209.44 0.16 314.16-0.24v-208.96c-10.32-11.28-26.56-6.64-39.92-8-91.36 0.64-182.72 0.56-274.080 0-0.080 72.4 0.080 144.8-0.16 217.2zM844.64 237.36c11.12-12.32 23.6-23.36 36.64-33.84-9.92-6-19.68-12.16-29.44-18.32-34.16 18.16-68.96 35.52-105.28 48.96 14.8-31.52 47.92-44.64 77.44-58.24 44.8-20.080 72.16-67.040 120.4-81.040-6.88 13.68-13.84 27.6-23.84 39.36 9.6 4.4 19.28 8.8 28.88 13.28 8.8-6.96 18-13.28 27.28-19.6-22.64 53.44-71.6 104.96-132.080 109.44zM748.8 181.36c0.24-7.28 0.56-21.84 0.8-29.12 44.56-12.24 74.8-58.96 123.44-55.76-31.2 41.28-80.080 61.2-124.24 84.88z" />
<glyph unicode="&#xe966;" d="M132.32 492.080c63.040-6.8 122.72-49.28 145.28-109.28-3.68 1.040-11.040 3.12-14.72 4.24-16.48 16-31.52 33.68-49.36 48.24-24.24 22.96-57.040 33.68-81.2 56.8z" />
<glyph unicode="&#xe967;" d="M483.12 492.96c65.68-9.92 133.76-52.16 151.44-119.68-32.88 15.36-49.92 49.6-79.52 69.28-24.16 16.48-49.76 31.12-71.92 50.4z" />
<glyph unicode="&#xe968;" d="M854.72 480.4c8.48 8.72 23.040 1.040 32.88-1.68 43.12-21.2 80.4-57.36 96.8-103.2-18.56-0.24-24.96 18.080-35.36 29.84-25.6 31.68-63.68 49.040-94.32 75.040z" />
<glyph unicode="&#xe969;" d="M398.080 484.24c43.52-8.72 83.44-29.6 119.84-54.4 30-20.88 59.68-44.96 76.080-78.48-34.88 0.080-57.76 27.6-79.92 50.48-33.6 34.8-88.56 40.64-116 82.4z" />
<glyph unicode="&#xe96a;" d="M746.56 484.080c80.64-14.24 149.92-69.76 196.56-135.2-29.84 10.96-53.040 32.88-75.92 54.080-35.68 33.92-90.56 40.24-120.64 81.12z" />
<glyph unicode="&#xe96b;" d="M421.44 398.24c-14.96 4.32-19.36 18.24-20.88 32.16 43.68-16.56 86.8-40.24 114.24-79.2-37.52 0.4-60.24 34.64-93.36 47.040z" />
<glyph unicode="&#xe96c;" d="M745.76 429.12c47.36-11.040 89.6-39.68 119.44-77.84-20.080 0.48-37.84 9.040-52.64 22.16-22.24 19.2-58.080 23.68-66.8 55.68z" />
<glyph unicode="&#xe96d;" d="M141.6 236.4c34.88 3.6 62-20 87.040-40.32 22.72-20 49.84-41.92 48.56-75.52-28.32 26.48-50.96 60-85.36 79.36-18.16 10.080-35.52 21.68-50.24 36.48z" />
<glyph unicode="&#xe96e;" d="M48.88 174.88c17.12 4.56 30.96-12.32 45.92-18.24 27.040-15.84 51.2-36.48 71.36-60.48-17.040-0.48-33.040 4.4-44.72 17.2-21.84 22.72-56.56 25.68-77.76 48.8 1.28 3.2 3.92 9.52 5.2 12.72z" />
<glyph unicode="&#xe96f;" d="M234.72 489.68c13.44 0.56 26.88 1.2 40.32 1.84-0.64-13.36-1.28-26.72-1.92-40.080-12.96 12.56-25.76 25.28-38.4 38.24z" />
<glyph unicode="&#xe970;" d="M46.32 483.68c44.080-5.36 83.12-28.4 118.080-54.48 29.28-22.48 57.92-47.040 77.92-78.48-30.16 2.56-52.48 23.12-71.28 44.88-34.32 39.52-93.12 45.28-124.72 88.080z" />
<glyph unicode="&#xe971;" d="M47.76 430.080c46.4-13.2 90.56-38.96 118.16-79.36-47.44 9.2-97.6 32.88-118.16 79.36z" />
<glyph unicode="&#xe972;" d="M844.64 237.36c60.48-4.48 109.44-56 132.080-109.44-9.28 6.32-18.48 12.64-27.28 19.6-23.040 18.32-45.28 37.52-68.16 56-13.040 10.48-25.52 21.52-36.64 33.84z" />
<glyph unicode="&#xe973;" d="M39.84 236.24c58.080-17.2 113.040-45.52 159.92-83.84 19.84-15.76 35.2-36.24 45.92-59.040-47.84 16.32-76.24 62.24-121.68 82.48-28.24 11.68-56.16 25.12-78.32 46.64l-5.84 13.76z" />
<glyph unicode="&#xe974;" d="M492.4 236.96c61.12-2 114.080-53.28 133.44-109.12-45.84 34.64-89.36 72.32-133.44 109.12z" />
<glyph unicode="&#xe975;" d="M746.56 234.16c36.32-13.44 71.12-30.8 105.28-48.96 24.96-13.92 48.8-30.32 68.72-50.96 10-11.76 16.96-25.68 23.84-39.36-48.24 14-75.6 60.96-120.4 81.040-29.52 13.6-62.64 26.72-77.44 58.24z" />
<glyph unicode="&#xe976;" d="M396.64 228.4c46.96-5.68 89.040-29.12 126.88-56.32 28.32-20.72 56.24-44.64 70.4-77.68-32.96 9.76-56.24 35.76-81.6 57.2-35.36 30.56-86.88 37.84-115.68 76.8z" />
<glyph unicode="&#xe977;" d="M388.8 181.84c50.88-16.24 98.56-45.040 133.84-85.44-41.28-5.84-64.88 34.48-100.96 46.080-18.56 5.52-28.4 21.36-32.88 39.36z" />
<glyph unicode="&#xe978;" d="M748.8 181.36c44.16-23.68 93.040-43.6 124.24-84.88-48.64-3.2-78.88 43.52-123.44 55.76-0.24 7.28-0.56 21.84-0.8 29.12z" />
<glyph unicode="&#xe979;" d="M29.68 233.52c4-2.8 12-8.32 16-11.040 22.16-21.52 50.080-34.96 78.32-46.64-9.76-6.4-19.44-12.8-29.2-19.2-14.96 5.92-28.8 22.8-45.92 18.24-1.28-3.2-3.92-9.52-5.2-12.72-9.76 11.76-3.52 25.2 5.92 34.88-7.12 11.92-14 23.92-19.92 36.48z" />
<glyph unicode="&#xe97a;" d="M851.84 185.2c9.76 6.16 19.52 12.32 29.44 18.32 22.88-18.48 45.12-37.68 68.16-56-9.6-4.48-19.28-8.88-28.88-13.28-19.92 20.64-43.76 37.040-68.72 50.96z" />
<glyph unicode="&#xe97b;" d="M507.2 960h11.44c136.32-66.32 276.16-125.2 413.52-189.36-1.2-188.96-0.96-385.36-76.56-562.16-47.28-112.96-140.56-206.64-257.040-246.8-30.64-8.88-62.24-25.68-94.96-18.16-69.44 15.28-136.96 42.96-193.52 86.72-84.64 64.16-139.2 160.4-169.6 260.72-47.68 156.16-49.2 321.12-49.76 483.040 119.6 53.76 240.4 105.040 360.32 158.16 18.96 8.72 39.6 14.64 56.16 27.84zM422.72 292.64c-45.28 45.36-91.28 90.080-135.52 136.4-7.44-7.12-14.96-14.32-22.4-21.52 52.64-52.48 104.96-105.36 157.84-157.6 110.48 107.84 222.8 213.92 334.4 320.48-6.88 7.68-13.84 15.36-20.8 22.96-104.16-100.64-209.6-199.92-313.52-300.72z" />
<glyph unicode="&#xe97c;" d="M422.72 292.64c103.92 100.8 209.36 200.080 313.52 300.72 6.96-7.6 13.92-15.28 20.8-22.96-111.6-106.56-223.92-212.64-334.4-320.48-52.88 52.24-105.2 105.12-157.84 157.6 7.44 7.2 14.96 14.4 22.4 21.52 44.24-46.32 90.24-91.040 135.52-136.4z" />
<glyph unicode="&#xe97d;" glyph-name="ggd_icon" d="M307.92 869.68c18.8 36.16 56.96 66.88 99.76 63.68 69.44-0.32 138.96-0.16 208.48-0.080 53.44 3.36 110.72-45.12 102.8-101.040-0.24-34.24-0.64-68.48-0.48-102.8 67.44-0.48 134.8 0.32 202.16-0.080 55.28 1.76 100.88-47.52 103.36-101.36v-569.52c0.16-32.32-15.84-62.64-43.52-79.28-28.64-22.64-66.48-17.36-100.4-17.6-258.72 0.56-517.52-0.32-776.16 0.4-41.68-0.48-73.040 33.28-92 66.88-15.84 24.8-10.72 55.2-11.36 82.96 0.32 170.8 0.4 341.6-0.080 512.4-6.64 59.36 56.24 106.64 111.6 102.48 64.88-0.8 129.68-0.24 194.48-0.48 1.36 47.76-3.2 95.84 1.36 143.44zM404.16 839.84c-0.4-41.92-0.48-83.92 0.080-125.84 73.84 1.2 147.68 0.72 221.52 0.32 0.16 41.76 0.16 83.52 0 125.36-73.84-0.64-147.76-0.88-221.6 0.16z" />
<glyph unicode="&#xe97e;" d="M1.2 760.96c1.44 51.76 52.96 90.4 102.48 89.44 277.76 0.4 555.52 0.32 833.28 0 29.68 1.36 55.040-19.52 69.44-43.76 20.72-30.32 12.24-68 17.6-102.16v-85.44l-4.64-64c-33.2-23.6-66.88-55.2-69.84-98.4-3.28-48 29.44-88 61.92-119.28 0.48-75.12 0.72-150.24 0-225.36-3.28-30.56-23.28-69.76-59.040-67.76-288.16-0.24-576.4 0.16-864.56-0.16-39.76-1.2-68.8 32.88-87.84 63.76v217.12c5.36 11.28 16.64 17.6 26 25.12 39.44 29.040 78.4 58.72 117.44 88.32-37.52 35.040-73.44 71.68-110.24 107.44-8.4 9.12-20.88 11.84-32 16.16 0.080 66.32-0.16 132.64 0 198.96zM502.88 733.12c-25.2-66.48-42.080-135.92-64-203.6-70.32 0.56-140.56 3.52-210.8 5.12 58.080-41.28 117.040-81.2 175.28-122.080-24.88-66.16-47.68-133.040-72.32-199.28 57.28 43.6 114.64 87.040 172.080 130.32 54.72-44.4 111.84-85.68 166.48-130.16-22.24 67.92-46.8 135.12-70 202.64 57.68 39.68 116.080 78.32 173.52 118.32-71.44 0.32-142.96-4.4-214.32-2.32-16.56 67.6-40.8 133.12-55.92 201.040z" />
<glyph unicode="&#xe97f;" d="M502.88 733.12c15.12-67.92 39.36-133.44 55.92-201.040 71.36-2.080 142.88 2.64 214.32 2.32-57.44-40-115.84-78.64-173.52-118.32 23.2-67.52 47.76-134.72 70-202.64-54.64 44.48-111.76 85.76-166.48 130.16-57.44-43.28-114.8-86.72-172.080-130.32 24.64 66.24 47.44 133.12 72.32 199.28-58.24 40.88-117.2 80.8-175.28 122.080 70.24-1.6 140.48-4.56 210.8-5.12 21.92 67.68 38.8 137.12 64 203.6z" />
<glyph unicode="&#xe980;" d="M576.32 806.24c6.16 9.28 13.84 17.52 21.28 25.76 9.84-18.16 14.96-38.24 5.68-57.92 4.24-2.16 12.8-6.56 17.040-8.8-0.8-22.96-1.2-46-1.36-68.96 4.72-1.84 14.080-5.6 18.8-7.44-3.44-6.24-7.040-12.4-10.8-18.48l0.72 9.68c0.16 1.52 0.48 4.56 0.64 6.080-19.12-0.8-38.32-0.64-57.44 0.4 5.040-9.84 9.84-19.76 14.16-29.92-11.28-10.4-26.32-15.2-40.16-21.040 16.48-4.96 33.44-1.76 49.52 3.12-18.24-18.8-56.32-4.56-64-32.48 7.36-5.52 14.8-10.96 22.32-16.32l-0.48 0.080c-5.76 0.88-17.28 2.72-23.040 3.6-2.16 21.2-4.56 42.48-3.12 63.84l4.080 4.8c0.56-5.68 1.76-17.040 2.32-22.72 16.4 5.040 32.72 10.24 49.040 15.68-6.24 9.36-12.4 18.8-18.96 27.84-2.72 0.48-8.080 1.52-10.8 2-24.64 1.52-49.44 0.88-74.080 1.84 6.48 3.44 13.040 6.88 19.52 10.32-0.080 23.84-0.24 47.68-0.4 71.44 7.12 0.080 14.32 0.16 21.52 0.16 3.76 10.48 7.84 20.88 11.6 31.36l4.16 10.8c-0.96-11.2-2-22.4-3.2-33.6 10.88-25.84 7.28-54.080 6.32-81.28 8.16-3.28 16.4-6.56 24.56-9.84 4.080 2.4 12.080 7.28 16.16 9.68 3.28 24.8-11.76 58.32 10.32 76.56-6.56 10.16-18.48 20.32-11.92 33.76zM592.72 814.24c-10.48-4.56-11.040-26.96 0.48-30.4 11.76 4.32 12.64 27.52-0.48 30.4zM502.16 764.4c0-24.24 0-48.4-0.16-72.64 7.12 0 21.44 0.080 28.56 0.16-0.16 23.92-0.24 47.76-0.32 71.68-7.040 0.16-21.12 0.56-28.080 0.8zM584.16 765.76c0.56-24.8 0.56-49.52 0.080-74.32 10.32 0.16 20.56 0.32 30.8 0.48-0.72 24.56-0.72 49.040 0.24 73.52-10.4 0.080-20.72 0.16-31.12 0.32z" />
<glyph unicode="&#xe981;" d="M506.4 800.8c-12.64 8.32 6.32 38.080 13.6 20.16-3.84-7.2-8.32-13.92-13.6-20.16z" />
<glyph unicode="&#xe982;" d="M420.56 784.16c-1.6 15.68 7.68 29.36 12.72 43.52 5.12-11.76 10.080-23.6 15.12-35.44-2.16-5.92-6.32-17.76-8.4-23.68-4.88 3.92-14.56 11.68-19.44 15.6z" />
<glyph unicode="&#xe983;" d="M506.4 800.8c5.28 6.24 9.76 12.96 13.6 20.16 2.48-5.2 7.44-15.6 9.92-20.8-3.76-10.48-7.84-20.88-11.6-31.36-6.080 8-12.16 16-18.24 23.92l6.32 8.080z" />
<glyph unicode="&#xe984;" d="M592.72 814.24c13.12-2.88 12.24-26.080 0.48-30.4-11.52 3.44-10.96 25.84-0.48 30.4z" />
<glyph unicode="&#xe985;" d="M852.16 803.12c32.32 16.8 68.32-4.48 89.12-29.52 13.76-18.080 32.56-36.72 29.6-61.36-0.56-197.52 0.24-395.12-0.48-592.64-3.44-29.84 35.040-35.44 52.56-52.080-112.64-2-225.36-1.52-338-0.32 12 13.44 33.44 23.92 30 44.96 0.4 82.88 0.16 165.76 1.28 248.64-0.64 23.44 20.32 43.36 43.52 42.64 62.8 0.88 125.6 0.080 188.4 0.16l-0.48-9.44c-62.64-0.4-125.36 0.48-188-0.24-18.32 2.24-35.040-15.6-33.76-33.52-1.6-87.76 0.48-175.68-1.92-263.44-3.44-5.52-10.48-16.48-13.92-22 94.16 2.4 188.48 1.2 282.72 0.56-10.56 7.44-21.12 14.8-31.76 22.16 1.040 207.6 0.64 415.2 0.32 622.72-9.92 38.72-44.48 68.64-81.12 83.040-37.040-10.080-79.12-40.16-74-83.28 0.64-80.56-0.32-161.2 0.56-241.84l-9.28 0.24c0.24 83.12 0.24 166.32-0.080 249.44-2.72 33.92 27.28 60.48 54.72 75.12z" />
<glyph unicode="&#xe986;" d="M123.6 803.44c42.24 16.4 85.12-14.24 102.16-52-1.12-2-3.36-5.92-4.56-7.92-16.24 24.96-37.28 53.12-69.44 55.92-33.28 1.12-57.36-27.28-74.96-52.16-16.72-18.56-10.16-44.48-11.28-67.12 0.080-194.32 0.48-388.72-0.16-583.12-10.64-6.96-21.2-14-31.68-21.2 94.48-0.16 189.040 1.92 283.52-1.12-3.6 5.6-10.88 16.8-14.48 22.4-2.56 87.28-0.8 174.72-2.48 262 1.040 16.24-10.48 33.2-27.36 34.32-66.24 2.8-132.64-2-198.8 2.4 12.72 11.52 30.48 7.28 45.92 8.080 50.24-0.96 100.48 0.96 150.64-0.72 21.84-1.12 40.48-20.88 39.2-42.88 0.88-87.76 0-175.6 0.88-263.36 10.16-9.92 20.4-19.76 30.48-29.84-112.16-1.040-224.32-1.52-336.48 0.32 17.12 12.64 35.2 23.84 52.88 35.6-0.16 209.040-0.56 418.080 0.16 627.12 12.16 30.72 36.080 58.32 65.84 73.28z" />
<glyph unicode="&#xe987;" d="M298.16 575.2c84.56-0.16 169.36 2.32 253.76-4.16 9.76-0.24 19.6 1.040 29.040 3.76 52.080 1.28 104.24 0.4 156.32 0.4 3.2-44.32 1.52-95.44-32.080-128.8-22.96-23.52-57.28-27.36-88.48-27.76 1.68-106.88 0.56-213.76 0.64-320.64 5.36-8.48 10.72-16.88 16.080-25.36-79.68-0.96-159.36 1.84-238.88-1.84 6.4 13.12 18.32 24.96 17.12 40.56 0.080 102.4-0.080 204.88 0.080 307.28-40.24-3.28-80.56-5.44-120.88-7.84 2.32 54.8 5.28 109.52 7.28 164.4z" />
<glyph unicode="&#xe988;" d="M416.56 765.92c11.28 0.080 22.56 0.16 33.92 0.48-0.4-24.72-0.080-49.36-1.12-74-10.64 0.080-21.28-0.16-31.84-0.8-0.4 24.8 0 49.6-0.96 74.32z" />
<glyph unicode="&#xe989;" d="M584.16 765.76c10.4-0.16 20.72-0.24 31.12-0.32-0.96-24.48-0.96-48.96-0.24-73.52-10.24-0.16-20.48-0.32-30.8-0.48 0.48 24.8 0.48 49.52-0.080 74.32z" />
<glyph unicode="&#xe98a;" d="M225.76 751.44l3.84 6.24c4.64-92.96 0.24-186.24 2.4-279.28-4.080 0-12.080-0.080-16.080-0.080 0 75.2 0.4 150.4-0.32 225.68 1.12 13.040-2.4 28.080 5.6 39.52 1.2 2 3.44 5.92 4.56 7.92z" />
<glyph unicode="&#xe98b;" d="M394.72 689.68c5.76 0.48 17.12 1.44 22.8 1.92 10.56 0.64 21.2 0.88 31.84 0.8 5.92-2.8 17.68-8.4 23.52-11.28l-6.96 0.32c-19.52 0.88-39.040 1.92-58.56 3.2 8.64-12 17.12-24.16 26-36.080-13.6 12.96-26.48 26.72-38.64 41.12z" />
<glyph unicode="&#xe98c;" d="M477.68 686.88c24.64-0.96 49.44-0.32 74.080-1.84-7.28-7.52-14.48-15.12-21.6-22.8l-4.080-4.8c-1.44-21.36 0.96-42.64 3.12-63.84 5.76-0.88 17.28-2.72 23.040-3.6-22.56-5.2-46.4-9.040-68.48 0.24 5.84 2.16 17.52 6.4 23.28 8.56-1.76 8.88-3.76 17.68-6.16 26.4 0.72 2.96 2.080 8.8 2.72 11.76 1.2 5.12 3.52 15.44 4.72 20.56-9.84 10.16-19.84 20.32-30.64 29.36z" />
<glyph unicode="&#xe98d;" d="M570.88 686.56c19.12-1.040 38.32-1.2 57.44-0.4-0.16-1.52-0.48-4.56-0.64-6.080-3.36-3.6-10.16-10.88-13.6-14.48-7.28-3.92-12.24-9.84-14.88-17.68-1.2-2.32-3.6-6.96-4.8-9.2-16.080-4.88-33.040-8.080-49.52-3.12 13.84 5.84 28.88 10.64 40.16 21.040-4.32 10.16-9.12 20.080-14.16 29.92z" />
<glyph unicode="&#xe98e;" d="M407.36 684.64c19.52-1.28 39.040-2.32 58.56-3.2l-11.12-10.48c-10.64-4.16-11.36-9.36-2.24-15.6 14.64-11.84 32.8-16 51.040-18.4-0.64-2.96-2-8.8-2.72-11.76-23.040 4.8-52.32 1.6-67.52 23.36-8.88 11.92-17.36 24.080-26 36.080z" />
<glyph unicode="&#xe98f;" d="M452.56 655.36c-9.12 6.24-8.4 11.44 2.24 15.6-0.56-3.92-1.68-11.68-2.24-15.6z" />
<glyph unicode="&#xe990;" d="M599.2 647.92c2.64 7.84 7.6 13.76 14.88 17.68 4.32-13.76-0.64-19.6-14.88-17.68z" />
<glyph unicode="&#xe991;" d="M457.2 584.16c4.72 2.080 14.24 6.32 19.040 8.4l7.52-2.32c22.080-9.28 45.92-5.44 68.48-0.24l0.48-0.080c6.24-1.2 18.64-3.52 24.88-4.72-34.16-23.52-78.080-3.92-116.56-8.8l-3.84 7.76z" />
<glyph unicode="&#xe992;" d="M343.92 895.92c34.24 29.28 77.12 48.96 120.56 60.48 56.16 4.16 115.76 4.88 167.6-20.4 37.44-17.44 72.080-47.28 83.44-88.4 11.36-44.32 4.32-91.040-11.040-133.52 32.64-52.32 9.92-122.080-35.12-159.36-20.4-43.92-36.4-92.96-76.4-124.16-35.2-32.72-86.32-26-130.24-23.6-52.32 9.68-82.16 60.32-102.48 104.88-19.040 48-68.24 81.2-72.24 135.36-6.96 25.36 9.040 47.28 22.8 66.64 0.8 61.28-3.68 129.36 33.12 182.080zM374 799.12c-12.96-46.080-2.32-94.48-8.56-141.28-3.76-9.28-11.44-26.64-23.44-22.88-7.28 20.96-11.2 43.040-18.080 64.16-19.68-18.32-13.68-47.28-10.56-71.12 4.8-34 46.96-44.080 54.64-76.88 10.88-40.96 29.68-82.16 64.4-108.16 44.24-33.52 108.32-22.8 151.040 7.76 41.12 29.2 59.84 79.6 65.52 128 13.28 6 31.2 7.92 38 22.72 12.56 27.2 8.72 58.4 9.2 87.44-21.92-5.92-11.36-30.48-14.16-46.48-6.96-0.64-13.92-1.28-20.88-1.92-2.16 37.36-3.52 74.72-4.32 112.16 1.52 22.88-17.44 41.36-35.68 51.92-52.16 5.92-104.8-3.76-156.96 0.96-27.84 2-43.76 26.88-54.88 49.36-13.92-16.96-30.24-33.6-35.28-55.76z" />
<glyph unicode="&#xe993;" d="M240.96 350.8c40.48 23.36 83.040 42.96 125.36 62.64 28.56-85.84 57.76-171.44 87.44-256.88 12.88 37.44 17.84 77.12 28.56 115.2-17.36 30.24-33.6 61.12-51.84 90.8 24.88 8.32 49.2 18.4 74.72 24.8 25.36-3.36 48.64-16.24 72.56-25.040-15.84-30.080-29.84-61.12-45.36-91.36 11.68-37.84 21.92-76.16 32.64-114.32 35.84 83.84 60.8 172.16 94.96 256.8 69.2-35.76 142.88-66.96 199.92-121.68 41.84-39.44 71.44-96.8 63.44-155.52-7.2-42.4-40.16-74.32-74-97.84-68.88-45.36-149.44-68.88-229.68-84.8-67.28-12.24-137.040-20.32-204.72-6.56-68.96 14.080-136.88 35.2-199.52 67.52-37.52 19.36-75.040 42.4-100.56 76.88-23.28 29.84-16.96 70.24-13.68 105.12 15.68 72 79.36 119.52 139.76 154.24z" />
<glyph unicode="&#xe994;" d="M374 799.12c5.040 22.16 21.36 38.8 35.28 55.76 11.12-22.48 27.040-47.36 54.88-49.36 52.16-4.72 104.8 4.96 156.96-0.96 18.24-10.56 37.2-29.040 35.68-51.92 0.8-37.44 2.16-74.8 4.32-112.16 6.96 0.64 13.92 1.28 20.88 1.92 2.8 16-7.76 40.56 14.16 46.48-0.48-29.040 3.36-60.24-9.2-87.44-6.8-14.8-24.72-16.72-38-22.72-5.68-48.4-24.4-98.8-65.52-128-42.72-30.56-106.8-41.28-151.040-7.76-34.72 26-53.52 67.2-64.4 108.16-7.68 32.8-49.84 42.88-54.64 76.88-3.12 23.84-9.12 52.8 10.56 71.12 6.88-21.12 10.8-43.2 18.080-64.16 12-3.76 19.68 13.6 23.44 22.88 6.24 46.8-4.4 95.2 8.56 141.28z" />
<glyph unicode="&#xe995;" glyph-name="Mall" d="M911.125 313.749c-3.865 3.867-9.205 6.259-15.104 6.259-11.789 0-21.347-9.553-21.355-21.341v-149.334c0-35.328-28.672-64-64-64h-597.333c-35.328 0-64 28.672-64 64v149.248c0 0.013 0 0.028 0 0.043 0 11.782-9.551 21.333-21.333 21.333-11.767 0-21.309-9.527-21.333-21.288v-149.335c0-58.91 47.756-106.667 106.667-106.667h597.333c58.91 0 106.667 47.756 106.667 106.667v0 149.12c0.001 0.093 0.002 0.202 0.002 0.311 0 5.853-2.373 11.151-6.21 14.985v0zM256 576h512c11.782 0 21.333 9.551 21.333 21.333s-9.551 21.333-21.333 21.333v0h-512c-11.782 0-21.333-9.551-21.333-21.333s9.551-21.333 21.333-21.333v0zM234.667 363.989c0.034 0 0.075 0 0.115 0 56.58 0 106.721 27.567 137.724 70.003l0.336 0.483c30.912-43.392 81.664-71.808 139.157-71.808s108.224 28.416 139.136 71.765h0.043c31.346-42.894 81.476-70.443 138.041-70.443 0.040 0 0.080 0 0.12 0h-0.006c94.251 0 170.667 76.075 170.667 170.005 0 17.771-2.837 34.837-7.979 50.901l0.171 0.064-2.731 6.933c-1.173 3.136-2.325 6.315-3.712 9.344l-93.611 237.76-0.213-0.064c-2.879 8.397-10.679 14.337-19.875 14.4h-640.051c-9.225-0.048-17.049-5.991-19.902-14.251l-0.045-0.149-0.213 0.064-93.589-237.717c-1.365-3.072-2.539-6.208-3.712-9.344l-2.731-6.976 0.171-0.043c-5.058-15.213-7.977-32.727-7.979-50.922v-0.001c0-93.888 76.416-170.005 170.667-170.005zM112.661 572.544l92.565 238.123h613.547l92.565-238.144c3.742-11.303 5.93-24.318 5.995-37.835v-0.032c0-70.692-57.308-128-128-128v0c-42.133 0-79.168 20.587-102.485 52.011h-0.171c-7.736 11.697-20.831 19.306-35.703 19.306-11.773 0-22.433-4.769-30.153-12.48v0c-2.166-2.2-4.102-4.638-5.762-7.267l-0.105-0.178c-23.253-31.829-60.544-52.715-102.955-52.715-42.027 0-78.955 20.523-102.251 51.861-1.876 3.287-4.026 6.123-6.493 8.648l0.008-0.008c-7.719 7.708-18.377 12.475-30.148 12.475-15.014 0-28.216-7.755-35.82-19.477l-0.101-0.166h-0.064c-23.317-31.424-60.352-52.011-102.485-52.011-70.692 0-128 57.308-128 128v0c0.084 13.561 2.278 26.581 6.27 38.787l-0.254-0.899z" />
<glyph unicode="&#xe996;" glyph-name="Home" d="M778.205-63.45h-204.91l-0.22 278.4h-99.060v-278.4h-205c-35 0-67 16.7-90.11 47-18.73 24.61-29.46 56.28-29.46 86.88v254.090h-50.9c-30.45 0-71 21.38-89.43 62.25-5.757 12.5-9.115 27.124-9.115 42.532 0 4.285 0.26 8.509 0.764 12.657l-0.049-0.499c3 26.12 15.47 51.8 37 76.31l0.1 0.12c55.25 62 117.5 127.5 177.69 190.83 59.59 62.7 121.2 127.52 175.090 188l1.060 1.16c38.69 40.86 81.46 61.57 127.16 61.57 46.1 0 91.13-21.47 133.83-63.8l2-2.11 1-1.24c55.23-65.25 116.91-135.3 176.55-203l0.17-0.19c59.18-67.11 115.020-130.58 164.71-189.28l0.6-0.74 1.91-2.48c27.12-37.59 32-82.18 13-119.28-16.92-33.070-49.25-52.82-86.48-52.82h-28.33v-231.62c0-47.070-11.39-85.22-33.85-113.4-21.76-27.29-53-42.94-85.72-42.94zM622.015-14.65h156.19c17.78 0 35.12 9 47.57 24.56 15.4 19.32 23.2 47.23 23.2 83v280.42h77.13c18.81 0 34.5 9.57 43 26.24 10.41 20.35 7.090 45.79-8.87 68.14l-0.75 1c-49.27 58.19-104.86 121.29-163.7 188.15l-0.17 0.19c-59.76 67.88-121.6 138.11-177.12 203.7l-0.4 0.42c-33.17 32.83-66.57 49.48-99.28 49.48-31.71 0-62.51-15.54-91.54-46.18l-0.32-0.35c-54.38-61-116.22-126.090-176-189s-121.94-128.24-176.61-189.64c-30.72-35-28.25-62-20.76-78.6 10.35-22.89 32.95-33.56 45-33.56h99.75v-302.86c0.207-21.652 7.503-41.56 19.673-57.558l-0.173 0.238c13.63-17.91 31.84-27.78 51.27-27.78h156.11v278.4h196.63z" />
<glyph unicode="&#xe997;" glyph-name="Classify" d="M640.8-63.2c-49.6 0-92.8 64-92.8 116.8v264.8c0 51.2 41.6 92.8 92.8 92.8h289.6c51.2 0 92.8-41.6 92.8-92.8v-288.8c0-51.2-41.6-92.8-92.8-92.8h-289.6zM642.4 363.2c-26.4 0-48-21.6-48-48v-285.6c0-26.4 21.6-48 48-48h285.6c26.4 0 48 21.6 48 48v285.6c0 26.4-21.6 48-48 48h-285.6zM93.6-63.2c-49.6 0-92.8 64-92.8 116.8v264.8c0 51.2 41.6 92.8 92.8 92.8h289.6c51.2 0 92.8-41.6 92.8-92.8v-288.8c0-51.2-41.6-92.8-92.8-92.8h-289.6zM95.2 363.2c-26.4 0-48-21.6-48-48v-285.6c0-26.4 21.6-48 48-48h285.6c26.4 0 48 21.6 48 48v285.6c0 26.4-21.6 48-48 48h-285.6zM640.8 484c-49.6 0-92.8 64-92.8 116.8v264.8c0 51.2 41.6 92.8 92.8 92.8h289.6c51.2 0 92.8-41.6 92.8-92.8v-288.8c0-51.2-41.6-92.8-92.8-92.8h-289.6zM642.4 910.4c-26.4 0-48-21.6-48-48v-285.6c0-26.4 21.6-48 48-48h285.6c26.4 0 48 21.6 48 48v285.6c0 26.4-21.6 48-48 48h-285.6zM93.6 484c-49.6 0-92.8 64-92.8 116.8v264.8c0 51.2 41.6 92.8 92.8 92.8h289.6c51.2 0 92.8-41.6 92.8-92.8v-288.8c0-51.2-41.6-92.8-92.8-92.8h-289.6zM95.2 910.4c-26.4 0-48-21.6-48-48v-285.6c0-26.4 21.6-48 48-48h285.6c26.4 0 48 21.6 48 48v285.6c0 26.4-21.6 48-48 48h-285.6z" />
<glyph unicode="&#xe998;" glyph-name="Management_iconnot" d="M251.52 685.696c3.456 39.040 45.44 57.856 80.512 55.168 115.072-1.024 230.4 2.304 345.344-1.536 52.48-4.352 61.696-61.824 58.112-104.192 24.32-6.4 56.192-16.128 53.248-47.744-1.408-49.152 17.28-122.368-37.888-148.736-80.128-16.896-163.84 5.632-244.096-12.16 29.056-15.616 69.12-28.16 72.448-67.072 4.352-55.168 5.376-111.232-1.024-166.4-17.024-74.624-154.112-70.528-154.496 12.032-1.408 71.936-29.44 184.064 60.544 213.504 1.408 15.36 2.688 30.72 4.096 46.080 82.688 0.896 165.248-0.128 247.936 0.896 5.12 4.992 15.104 15.104 20.096 20.096-6.656 38.272 20.096 96.384-19.584 120.192-3.456-39.040 2.432-97.536-46.080-110.336-110.72-7.552-222.208-0.256-333.312-3.328-37.376-1.408-89.472-1.792-103.552 41.472-8.32 50.048-6.4 101.632-2.304 152.064zM289.152 698.24c-15.104-38.656-7.936-82.688-8.576-123.392 1.024-17.92 1.536-49.024 26.496-48.768 106.624-4.48 213.376 0.384 320.128-2.176 23.552 2.688 55.552-6.016 71.296 16.896 4.864 45.44 3.712 91.52 1.536 137.216 0.512 23.808-27.904 31.872-47.232 30.72-102.528 1.152-205.056-0.384-307.584 0.512-17.92-3.456-43.648 5.376-56.064-11.008zM464.128 368.64c-19.2-46.464-7.68-99.968-8.96-149.12-2.176-45.824 65.408-46.72 90.88-23.808 4.608 52.992 4.608 106.752-0.128 159.744-16.768 27.264-55.68 20.096-81.792 13.184zM315.392 650.624c28.672 28.544 70.912 20.736 107.264 22.016 28.288-3.456 76.672 11.392 70.784-33.92-59.392 2.048-120.704-7.808-178.048 11.904zM299.136 467.84c5.888 3.328 17.536 10.112 23.424 13.568-1.536-70.528 6.272-142.080-3.072-211.968l-17.92-19.072c-6.784 72.192-7.040 145.28-2.432 217.472zM356.736 482.432c5.376-3.84 16-11.776 21.376-15.744 7.296-48.896 3.456-99.072-2.688-147.968-40.704 43.264-13.696 110.336-18.688 163.712z" />
<glyph unicode="&#xe999;" glyph-name="Mine_iconnot" d="M318.464 573.568c-12.288 123.776 112.384 230.4 231.936 215.296 50.304-26.496 108.032-50.304 133.888-105.088 54.016-91.136 16.768-219.776-77.184-268.288-60.416-36.224-135.552-13.568-197.888-43.648-62.976-27.52-112.512-82.176-137.728-145.664-16.768-40.064-12.544-86.272-35.072-124.16-6.784 9.216-20.224 27.904-26.88 37.12 18.816 35.2 18.432 76.8 35.968 112.512 32.896 76.288 101.632 132.736 179.712 158.592-54.912 38.016-102.912 93.824-106.752 163.328zM479.616 747.52c-60.8-12.416-109.824-62.208-124.16-121.984-22.912-84.992 36.352-179.584 122.368-197.12 96.64-23.424 202.24 59.264 197.632 159.872 4.736 100.352-99.84 180.352-195.84 159.232zM699.392 348.416c43.52-15.104 63.36-64.256 83.584-102.272 15.232-47.232 53.632-106.112 6.912-148.096-24.576 52.992-16.256 116.736-51.968 165.504-12.8 28.544-53.12 49.92-38.528 84.864z" />
<glyph unicode="&#xe99a;" glyph-name="school_iconnot" d="M176.896 678.528c111.872 37.76 221.44 84.736 335.488 115.2 113.152-28.032 220.928-75.392 332.672-108.928-13.184-8.96-26.88-17.408-38.784-27.904-5.12-49.28 2.944-99.2-3.84-148.224-5.888-3.84-17.536-11.392-23.296-15.104-4.992 54.784-2.048 109.696-4.736 164.608-40.96-14.976-26.88-60.16-29.184-94.208-4.48-6.272-13.568-18.816-18.176-25.088-0.512-84.608-49.92-161.152-123.648-200.704 99.584-33.408 183.296-110.848 219.776-209.792 0.384-7.168 1.152-21.504 1.536-28.672-23.168-3.072-27.264 22.016-36.736 36.224-34.56 75.136-97.28 138.88-176.128 166.272-104.32 37.248-230.272 12.544-306.944-69.12-39.808-35.456-60.416-85.248-87.296-129.92l-16.512-2.048c-8.32 30.208 13.568 57.216 26.112 82.816 41.856 75.264 115.584 126.336 195.328 155.136-74.624 38.4-125.568 115.328-124.416 200.32-4.736 6.272-14.336 18.816-19.072 25.088-0.128 25.472-0.256 50.944-0.512 76.288-34.688 10.112-68.992 22.016-101.632 37.76zM271.232 678.272c79.872-28.672 159.104-60.288 241.024-82.048 81.024 23.552 160.512 53.632 238.848 84.992-79.872 26.624-157.952 60.288-239.744 80.128-81.792-21.76-160.256-55.168-240.128-83.072zM309.248 629.632c-0.128-17.408-0.128-34.688-0.256-52.096 121.344-53.632 263.68-53.504 387.072-6.784 30.208 6.016 19.968 41.728 24.064 63.616-70.016-21.12-136.32-54.784-208-69.632-70.016 12.8-135.168 43.776-202.88 64.896zM324.992 527.232c10.496-43.008 22.912-88.448 55.936-120.064 65.28-70.784 187.648-75.52 257.28-8.832 36.736 33.28 51.072 82.304 62.080 128.896-123.008-29.312-252.288-29.696-375.296 0z" />
<glyph unicode="&#xe99b;" glyph-name="shopping_iconnot" d="M233.856 665.472c-6.656 22.272-19.072 71.296 21.12 54.784 38.272-110.976 63.488-226.048 96.512-338.688 5.504-15.104 8.576-41.984 31.616-36.992 85.632-1.28 171.264 0.384 256.896-0.64 19.072 1.024 48.512-5.376 54.144 19.968 23.168 80.768 42.752 162.56 66.816 243.072-126.592 2.944-253.312-0.768-379.904 1.92 12.288-47.488 24.96-94.848 38.656-141.952 57.472-0.896 115.2 3.84 172.416-1.28 19.584-13.056 18.816-24.96-2.304-35.584-65.664-4.224-131.328 2.944-197.12 0.512-21.632 70.016-45.184 140.16-54.912 212.992 134.912 3.456 269.952 1.536 404.864 1.28 28.672 1.024 76.416-18.944 57.344-55.040-32.256-78.336-46.336-162.56-72.192-242.944-6.272-21.376-25.472-39.424-48.896-37.632-102.784-0.768-205.824-0.768-308.736 0-27.008-0.64-45.824 24.704-50.944 48.896-28.8 102.4-56.192 205.184-85.376 307.328zM388.992 263.936c43.008 25.344 98.944-30.848 75.392-74.496-16.384-36.608-70.656-44.544-94.72-11.264-26.112 25.984-12.16 71.296 19.328 85.76zM402.176 225.792c-26.112-16.256 9.472-47.616 24.576-24.576 18.56 13.696-17.28 50.56-24.576 24.576zM616.704 264.832c39.424 17.664 84.864-18.56 77.312-60.544-4.992-43.776-68.736-65.536-97.024-29.824-28.16 26.624-16.128 77.824 19.712 90.368zM621.824 222.592c-7.424-18.432 7.424-38.656 27.008-25.472 26.752 17.792-11.52 54.272-27.008 25.472z" />
<glyph unicode="&#xe99c;" glyph-name="vicinity_iconnot" d="M475.648 741.12c85.76 11.008 174.848-19.584 237.184-79.232 74.752-69.248 109.312-179.84 84.992-279.168-22.656-104.192-107.008-192.64-210.176-219.392-81.408-23.424-172.288-7.040-241.536 41.216-101.76 67.072-152.576 201.728-119.040 319.104 28.928 113.92 131.712 204.16 248.576 217.472zM453.76 709.376c-115.072-23.424-204.544-131.072-209.024-247.936-8.064-123.136 80.256-244.608 200.704-272.768 120.32-34.304 256.256 32.64 307.328 145.664 44.288 93.056 28.8 211.328-40.064 288.256-61.184 74.112-165.632 109.056-258.944 86.784zM441.728 518.272c71.296 29.824 145.408 52.48 217.984 79.104-26.368-72.704-48.896-146.816-78.72-218.24-69.888-32.384-145.792-52.736-217.984-80.64 26.112 73.216 48.896 147.968 78.72 219.776zM461.056 498.304c-21.504-55.168-41.6-110.72-64.128-165.376 54.272 23.040 109.952 42.624 164.736 64.896 20.992 55.296 41.344 110.72 63.36 165.632-53.76-24.064-109.568-42.624-163.968-65.152zM500.224 473.728c32 12.16 52.096-34.432 23.424-51.584-32.64-12.416-55.040 35.584-23.424 51.584z" />
<glyph unicode="&#xe99d;" glyph-name="workman_iconnot" d="M229.248 653.184c83.584 125.568 260.224 173.824 397.696 114.432 121.728-48.384 207.232-175.232 204.544-306.432 2.56-85.376-36.608-165.12-89.088-230.016 43.392-22.272 85.632-47.104 119.296-82.944-13.312-15.232-26.624-30.336-40.32-45.184-38.656 31.36-68.352 71.040-96.768 111.232-60.16-47.744-133.376-80.896-210.944-83.072-123.264-10.368-244.864 62.080-303.488 169.216-61.568 108.416-53.248 251.392 19.072 352.768zM396.928 742.784c-119.296-43.264-203.904-167.040-196.224-294.4 0.896-73.472 38.016-139.264 81.536-195.968 72.704 174.208 359.040 171.392 434.944 0.64 84.992 92.288 110.72 237.056 48.128 348.288-65.664 129.792-232.704 194.56-368.384 141.44zM310.528 228.736c108.928-86.016 271.616-87.296 379.904 0.64-51.968 162.56-329.472 163.712-379.904-0.64zM464.64 661.248c94.848 29.44 196.992-63.872 168.704-161.024-19.84-105.856-174.72-136.064-238.592-53.12-63.872 69.504-22.784 195.968 69.888 214.144zM451.328 621.696c-59.136-27.008-76.288-114.304-28.16-159.616 55.040-60.928 174.848-28.16 182.144 56.576 14.208 80.896-84.48 144.128-153.984 103.040zM516.224 597.248c13.952-5.376 28.544-9.984 40.448-19.456-5.632-5.888-17.152-17.536-22.912-23.424-7.808 13.44-12.544 28.288-17.536 42.88zM453.376 586.624c12.032 20.864 43.392-1.28 29.824-20.224-11.904-20.992-43.392 1.408-29.824 20.224z" />
<glyph unicode="&#xe99e;" glyph-name="captcha" d="M963.801 741.829c-3.336 31.772-26.662 57.263-57.034 63.817l-0.48 0.087c-72.018 11.442-134.721 26.344-195.581 45.414l9.62-2.599c-63.484 26.38-118.264 59-167.561 98.217l1.41-1.083c-12.315 8.95-27.738 14.317-44.413 14.317s-32.098-5.368-44.633-14.469l0.22 0.152c-46.293-42.914-102.317-76.034-164.341-95.653l-3.087-0.842c-52.883-22.533-114.185-38.387-178.32-44.537l-2.528-0.196c-31.482-5.224-55.412-31.563-56.869-63.757l-0.005-0.147s-1.917-160.399-1.917-301.627c0-255.616 301.627-502.924 452.44-502.924s406.429 174.458 447.328 499.090c10.225 191.712 3.195 306.1 3.195 306.1zM799.568 544.366l-315.047-297.154c-7.661-7.284-18.047-11.765-29.479-11.765-8.504 0-16.43 2.48-23.092 6.755l0.171-0.102-8.308 7.029-173.819 180.848c-7.107 7.706-11.465 18.042-11.465 29.396 0 23.979 19.438 43.417 43.417 43.417 12.625 0 23.991-5.389 31.925-13.991l0.027-0.030 143.145-150.174 283.734 268.397c7.706 7.107 18.042 11.465 29.396 11.465 23.979 0 43.417-19.438 43.417-43.417 0-12.625-5.389-23.991-13.991-31.925l-0.030-0.027z" />
<glyph unicode="&#xe99f;" glyph-name="user" horiz-adv-x="1025" d="M511.953 362.719c164.928 0 298.65 133.7 298.65 298.642 0 164.939-133.722 298.639-298.65 298.639-164.915 0-298.639-133.7-298.639-298.639 0.002-164.94 133.724-298.642 298.639-298.642v0 0zM751.288 388.81c-63.852-56.082-147.563-90.103-239.232-90.103-91.661 0-175.369 34.021-239.227 90.103-162.265-85.905-272.829-256.432-272.829-452.81h1024.115c0 196.377-110.572 366.905-272.827 452.81v0 0z" />
<glyph unicode="&#xe9a0;" glyph-name="phone" d="M709.746 897.61h-393.409c-46.366 0-84.302-37.936-84.302-84.302v-730.616c0-46.366 37.936-84.302 84.302-84.302h393.409c46.366 0 84.302 37.936 84.302 84.302v730.616c0 46.366-37.936 84.302-84.302 84.302zM400.639 855.459h224.805v-28.101h-224.805v28.101zM513.042 54.591c-31.039 0-56.201 25.162-56.201 56.201s25.162 56.201 56.201 56.201c31.039 0 56.201-25.162 56.201-56.201s-25.162-56.201-56.201-56.201zM737.847 223.195h-449.61v562.013h449.61v-562.013z" />
<glyph unicode="&#xe9a1;" glyph-name="cipher" d="M788.454 601.557c-21.334 0-39.347 15.841-42.286 36.92-16.863 119.958-115.487 207.468-238.256 207.468s-221.265-87.51-238.256-207.468c-2.938-21.207-20.951-36.92-42.286-36.92-26.445 0-46.629 23.889-42.158 49.951 25.55 147.68 160.456 280.669 322.7 280.669s297.277-132.989 322.7-280.669c4.471-26.189-15.713-49.951-42.158-49.951zM885.8 459.881c0 47.651-38.581 86.232-86.232 86.232h-575.647c-47.651 0-86.232-38.581-86.232-86.232v-409.443c0-47.651 38.581-86.232 86.232-86.232h575.647c47.651 0 86.232 38.581 86.232 86.232v409.443zM580.986 139.736c0-35.77-29-64.642-64.642-64.642h-9.198c-35.77 0-64.642 29-64.642 64.642v175.402c0 35.77 29 64.642 64.642 64.642h9.198c35.77 0 64.642-29 64.642-64.642v-175.402z" />
<glyph unicode="&#xe9a2;" glyph-name="Payment" d="M604.672 697.344l-78.336-172.032h-15.872l-78.848 172.032h-47.104l78.336-172.032h-78.336v-47.104h110.080v-78.336h-110.080v-47.104h110.080v-78.336h47.104v78.336h110.080v47.104h-110.080v78.336h110.080v47.104h-78.336l78.336 172.032h-47.104zM876.544 845.824c-7.168 5.12-75.264 49.152-365.056 49.152s-358.4-44.544-365.056-49.152c-10.24-7.68-17.408-22.016-17.408-34.816v-364.032c0-222.72 347.648-430.592 362.496-439.296 5.632-3.072 12.8-5.12 19.968-5.12s14.336 2.048 19.968 5.12c14.848 8.704 362.496 216.576 362.496 439.296v364.032c0.512 12.8-7.168 27.648-17.408 34.816zM860.16 446.976c0-203.776-342.528-408.064-345.6-410.112 0 0-1.024-0.512-2.56-0.512l-2.56 0.512c-3.584 2.048-345.6 206.336-345.6 410.112v364.032c0 2.048 2.048 6.656 3.584 7.68 0.512 0.512 67.072 43.008 345.088 43.008s344.064-42.496 344.576-42.496c1.536-1.024 3.584-5.632 3.584-7.68l-0.512-364.544z" />
<glyph unicode="&#xe9a3;" glyph-name="More-operations" d="M482.032 478.463h-350.512v350.537h350.512v-350.537zM189.442 536.384h234.665v234.694h-234.665v-234.694zM482.032 70.627h-350.512v350.474h350.512v-350.474zM189.442 128.543h234.665v234.637h-234.665v-234.637zM545.241 791.893h346.718v-57.926h-346.718v57.926zM545.241 573.49h346.718v-57.921h-346.718v57.921zM545.241 383.831h346.718v-57.926h-346.718v57.926zM545.241 165.767h346.718v-57.916h-346.718v57.916z" />
<glyph unicode="&#xe9a4;" glyph-name="telephone" d="M637.050-64c-5.104 0-10.208 0-15.312 2.552-84.217 12.76-219.476 66.353-382.808 242.445-142.915 158.227-222.028 311.35-204.164 410.88 12.76 99.53 155.675 160.78 160.78 163.332 12.76 5.104 28.072 0 33.176-10.208l119.948-201.612c5.104-7.657 5.104-15.313 2.552-22.969s-7.656-12.76-15.313-15.312c0 0-15.312-7.656-17.864-25.52-5.104-20.417 0-66.354 71.457-150.572 45.937-56.145 94.426-86.77 135.26-86.77 38.28-2.552 61.249 22.969 63.8 22.969 10.209 10.208 25.521 10.208 35.73 2.552l188.851-142.915c10.208-7.656 12.76-22.969 7.656-33.177-5.105-7.655-79.114-155.675-183.748-155.675zM195.546 696.512c-40.832-22.969-102.082-66.354-109.738-114.843-10.208-63.8 35.729-193.956 191.404-364.943 153.123-165.884 275.622-214.373 349.631-227.133 53.593-7.656 107.187 61.25 132.707 104.634l-153.124 114.843c-17.864-12.76-45.937-25.52-84.218-25.52-58.697 2.551-117.394 38.28-176.091 107.185-66.354 79.114-94.426 145.467-81.666 199.060 5.104 20.417 15.312 35.73 25.52 43.385l-94.426 163.332zM966.265 372.4c-12.76 0-25.52 10.208-25.52 22.969-2.552 15.312-5.104 33.176-7.656 48.489s7.656 28.072 20.416 30.624c15.312 2.552 28.073-7.656 30.625-20.416 2.552-17.865 7.656-35.729 7.656-53.593 2.552-15.313-7.656-28.073-22.969-30.625 0 2.552 0 2.552-2.552 2.552zM925.433 533.18c-10.209 0-20.417 7.656-25.521 17.864s-7.656 20.416-12.76 30.624c-20.417 45.937-48.49 89.322-81.666 130.155-74.010 89.322-168.435 158.227-278.174 196.508-15.312 5.105-20.416 20.419-17.864 33.179 5.104 15.31 20.416 20.415 33.177 17.863 119.946-40.833 224.58-114.842 303.694-211.82 35.729-43.385 63.801-89.322 86.77-140.363 5.104-10.208 10.208-20.417 12.76-33.177 5.104-12.76-2.552-30.624-15.312-35.729 2.552-5.104-2.552-5.104-5.104-5.104zM802.934 374.952c-12.76 0-22.968 10.208-25.52 22.969-12.76 76.561-45.937 148.019-94.426 209.268s-112.29 107.186-183.748 135.259c-12.76 5.104-20.417 20.416-15.313 35.728 5.105 12.76 20.417 20.417 35.73 15.313 79.113-33.177 150.57-84.218 206.715-153.123 53.594-68.906 91.874-148.020 107.187-234.79 2.552-15.312-7.656-28.072-22.969-30.624-5.104 2.552-5.104 0-7.656 0zM634.499 385.16c-12.76 0-22.969 7.656-25.521 20.417-10.208 35.728-28.073 71.457-53.593 102.082s-56.145 56.145-89.322 74.010c-12.76 7.656-17.864 22.968-10.208 35.728s22.968 17.864 35.729 10.208c40.832-22.968 76.561-51.040 107.186-89.322 28.072-35.728 51.040-76.561 63.801-119.946 5.104-15.312-5.104-28.073-17.864-33.177h-10.208z" />
<glyph unicode="&#xe9a5;" glyph-name="Live-decoration" d="M679.443 410.038l-0.222 0.199c-12.562 7.464-73.976 41.662-151.255 83.583-113.56 59.376-132.505 70.044-151.43 80.744l92.847-48.295c2.146-0.72-6.935 4.38-16.054 9.42l-11.714 5.937c-8.12 4.009-16.257 6.077-24.069 6.077-24.774 0-54.549-16.379-54.549-42.363v-265.946c0-25.45 28.974-49.3 54.549-49.3 8.245 0 19.225 6.586 19.225 6.586s18.326 10.114 29.91 16.768c16.822 9.6 39.417 22.456 63.919 35.304 44.127 24.52 80.949 45.41 107.744 60.653l1.472 0.793c22.229 12.622 35.622 20.225 40.154 22.482 12.562 7.095 20.769 22.331 20.769 38.709-0.134 16.132-8.506 31.374-21.296 38.649zM402.73 229.829v278.141l258.274-139.070-258.274-139.071zM800.075 726.509h-180.429l71.155 124.285c1.459 2.978 2.313 6.48 2.313 10.182 0 2.859-0.509 5.599-1.441 8.134l0.053-0.164c-2.207 5.999-6.582 10.757-12.152 13.414l-0.144 0.062c-3.004 1.444-6.531 2.288-10.255 2.288-2.881 0-5.644-0.505-8.205-1.431l0.168 0.053c-6.019-2.167-10.808-6.505-13.513-12.048l-0.062-0.141-72.74-127.089c-2.757-5.714-2.965-11.97-1.098-17.547h-123.117c1.511 5.309 1.169 11.151-1.419 16.518l-72.734 127.081c-2.767 5.684-7.556 10.023-13.409 12.139l-0.166 0.052c-2.391 0.873-5.152 1.378-8.031 1.378-3.723 0-7.249-0.844-10.396-2.352l0.145 0.063c-5.717-2.717-10.095-7.475-12.253-13.309l-0.053-0.165c-0.881-2.371-1.39-5.111-1.39-7.969 0-3.701 0.854-7.202 2.375-10.317l-0.061 0.139 70.572-123.256h-179.862c-99.606 0-158.938-80.035-158.938-178.805v-377.477c0-98.79 59.331-158.938 158.938-158.938h576.149c99.594 0 158.932 60.148 158.938 158.938v377.477c0 98.77-59.343 178.805-158.937 178.805zM919.278 170.227c0-73.674-44.95-119.203-119.203-119.203h-576.15c-74.291 0-119.203 45.53-119.203 119.203v377.477c0 73.648 44.912 139.070 119.203 139.070h576.149c74.254 0 119.203-65.423 119.203-139.070v-377.477z" />
<glyph unicode="&#xe9a6;" glyph-name="Inspection_report" d="M293.328 833.386c-28.056-10.462-56.852-20.289-86.909-29.158l627.279-624.845c19.404 20.838 36.667 42.199 51.839 64.142l-592.209 589.861zM904.321 276.161c35.13 61.506 50.897 128.835 50.897 207.066v293.583c-149.017 35.215-316.57 72.867-441 166.745-56.2-35.91-117.53-67.735-184.311-95.24l574.413-572.154zM158.434 792.866c-28.929-7.595-95.303-14.694-95.303-20.753v-277.119c0-178.661 171.793-366.655 446.564-558.994 117.328 75.242 216.804 143.761 291.612 216.397l-642.873 640.469z" />
<glyph unicode="&#xe9a7;" horiz-adv-x="925" d="M92.16 960h740.896c16.812-1.381 33.386-6.598 47.496-15.941 22.055-14.252 38.013-37.608 43.098-63.393 0.871-3.941 1.126-7.988 1.821-11.964v-841.096c-1.478-15.861-6.281-31.477-14.841-44.972-9.809-15.756-24.122-28.653-40.819-36.755-11.392-5.683-23.929-8.639-36.544-9.879h-740.781c-20.586 1.619-40.758 9.325-56.61 22.653-18.712 15.342-31.485 37.784-34.899 61.757-0.22 2.358-0.616 4.68-0.976 7.003v839.759c1.759 28.688 16.609 56.223 39.764 73.264 15.105 11.445 33.579 17.982 52.396 19.565zM285.295 740.737c-33.342-39.755-66.569-79.598-99.902-119.352-22.627 20.093-45.35 40.089-67.88 60.296-4.882-4.944-9.307-10.319-13.935-15.501 27.975-24.887 56.003-49.722 84.031-74.548 37.872 45.262 75.788 90.489 113.581 135.821-5.296 4.425-10.583 8.876-15.897 13.284zM434.109 683.467c110.546-0.026 221.093 0.088 331.63-0.053 0.378 6.941 0.238 13.926 0.070 20.867-110.529-0.044-221.057-0.070-331.577 0.018-0.378-6.923-0.141-13.891-0.123-20.832zM285.26 478.148c-33.289-39.755-66.542-79.545-99.822-119.3-22.846 19.961-45.288 40.388-68.214 60.244-4.495-5.111-9-10.222-13.565-15.272 1.408-1.803 3.281-3.158 4.962-4.698 26.277-23.339 52.616-46.617 78.867-70 14.964 17.313 29.418 35.092 44.189 52.581 23.163 27.72 46.379 55.396 69.516 83.134-5.278 4.478-10.565 8.947-15.932 13.31zM434.109 410.823c110.168 0.009 220.327 0.018 330.486 0 1.891-0.484 1.223 1.839 1.364 2.85-0.158 5.991 0.202 11.999-0.185 17.982-110.537-0.106-221.084-0.044-331.621-0.026-0.194-6.932-0.114-13.864-0.044-20.805z" />
<glyph unicode="&#xe9a8;" horiz-adv-x="925" d="M285.295 740.737c5.314-4.407 10.601-8.859 15.897-13.284-37.793-45.332-75.709-90.559-113.581-135.821-28.028 24.826-56.056 49.66-84.031 74.548 4.627 5.182 9.052 10.557 13.935 15.501 22.53-20.207 45.253-40.203 67.88-60.296 33.333 39.755 66.56 79.598 99.902 119.352z" />
<glyph unicode="&#xe9a9;" horiz-adv-x="925" d="M434.109 683.467c-0.018 6.941-0.255 13.908 0.123 20.832 110.52-0.088 221.049-0.062 331.577-0.018 0.167-6.941 0.308-13.926-0.070-20.867-110.537 0.141-221.084 0.026-331.63 0.053z" />
<glyph unicode="&#xe9aa;" horiz-adv-x="925" d="M285.26 478.148c5.366-4.363 10.653-8.832 15.932-13.31-23.137-27.738-46.353-55.414-69.516-83.134-14.771-17.489-29.224-35.268-44.189-52.581-26.251 23.383-52.59 46.661-78.867 70-1.68 1.54-3.554 2.894-4.962 4.698 4.566 5.050 9.070 10.161 13.565 15.272 22.926-19.855 45.367-40.283 68.214-60.244 33.28 39.755 66.534 79.545 99.822 119.3z" />
<glyph unicode="&#xe9ab;" horiz-adv-x="925" d="M434.109 410.823c-0.070 6.941-0.15 13.873 0.044 20.805 110.537-0.018 221.084-0.079 331.621 0.026 0.387-5.982 0.026-11.991 0.185-17.982-0.141-1.012 0.528-3.334-1.364-2.85-110.159 0.018-220.318 0.009-330.486 0z" />
<glyph unicode="&#xe9ac;" glyph-name="address_icon" d="M232.192 743.168c42.112 130.944 182.656 221.824 319.616 200.576 151.040-17.28 270.336-164.736 259.328-315.776-19.072-209.152-157.824-382.464-298.24-528.768-98.688 97.792-185.6 209.536-245.632 335.232-43.648 95.104-72.576 206.848-35.072 308.736zM276.096 601.856c24.448-162.432 128.896-299.52 237.056-417.664 68.48 72.064 127.104 153.728 175.872 240.384 44.288 82.56 78.208 178.944 56.192 273.28-25.728 108.416-134.144 192.384-246.4 182.272-136.96-2.304-244.992-145.536-222.72-278.272zM477.312 803.328c86.656 24.192 182.272-46.976 186.112-136.32 12.032-84.992-64.384-173.44-151.552-166.784-98.56-6.144-173.952 106.368-143.872 197.248 15.744 50.944 57.344 92.8 109.312 105.856zM466.432 738.048c-63.744-34.048-64.512-135.552-0.256-169.472 60.032-39.68 146.688 13.952 142.592 84.608 4.992 70.784-82.688 123.648-142.336 84.864zM64.256 178.304c73.984 42.88 159.744 63.232 244.48 69.632 2.816-8.448 8.448-25.472 11.264-33.92-79.744-32.128-176.512-28.288-243.2-89.856-20.736-18.688 3.2-41.984 20.096-51.712 87.808-50.432 191.616-56.832 290.048-68.224 162.304-7.68 328.448-4.864 485.504 41.216 33.28 12.416 82.176 25.984 85.504 68.352-55.040 62.080-146.176 71.296-223.104 87.168-25.216 1.92-28.544 26.24-25.216 46.592 77.824-1.92 154.88-22.272 225.792-53.888 32.768-15.872 70.912-39.424 74.88-79.232 6.144-41.472-29.312-73.472-62.72-90.752-71.296-36.608-151.040-51.968-229.76-62.72-174.72-17.408-353.536-18.304-525.312 21.504-61.312 17.536-131.968 35.584-169.856 91.392-23.936 39.040 6.528 84.992 41.6 104.448z" />
<glyph unicode="&#xe9ad;" d="M273.664 888.576c3.328 20.736-9.344 56.576 22.784 57.856 30.208 0.256 22.656-37.888 24.96-58.24 0.256-34.432 0.512-68.864 1.92-103.296-0.64-6.656-1.92-20.224-2.432-26.88-7.68-7.040-23.040-20.992-30.592-28.032-6.4 18.688-13.056 37.248-19.968 55.808 2.688 34.176 2.688 68.48 3.328 102.784z" />
<glyph unicode="&#xe9ae;" d="M706.176 939.52c13.824 2.944 28.416 6.656 41.728-0.896 1.92-16.64 2.688-33.408 2.176-50.176-0.64-39.936 0-80.512 10.752-119.296-16.64-10.112-32.768-21.12-48.256-32.768-3.328 12.416-9.984 37.376-13.184 49.92 3.84 33.92 6.528 68.096 6.784 102.272 0.128 17.024 0.128 34.048 0 50.944z" />
<glyph unicode="&#xe9af;" d="M124.928 872.96c45.312 25.6 99.328 12.288 148.736 15.616-0.64-34.304-0.64-68.608-3.328-102.784-5.248-12.544-10.624-25.088-16-37.632 13.824-6.528 27.008-13.952 40.704-20.864 15.232 5.632 29.824 12.8 44.544 19.84-4.096 9.472-12.288 28.288-16.256 37.76-1.408 34.432-1.664 68.864-1.92 103.296 128.256 0.512 256.512 0 384.768 0.384-0.256-34.176-2.944-68.352-6.784-102.272 0.64-18.048-17.152-45.44 8.448-52.992 20.736-17.024 40.32 3.968 57.984 14.336-1.28 5.376-3.712 16.128-4.992 21.504-10.752 38.784-11.392 79.36-10.752 119.296 46.464-2.816 96 8.32 140.16-10.752 41.728-18.432 68.864-63.36 67.328-108.8 0.256-231.168 0-462.464 0.128-693.632 4.992-62.976-48.256-125.184-112.768-123.648-222.208-0.64-444.416-0.896-666.624 0.128-59.008-0.512-110.72 53.12-110.848 111.616-1.024 234.88-0.256 469.888-0.384 704.896-1.408 41.984 20.864 84.096 57.856 104.704zM434.176 564.736c-36.096-38.784-28.544-101.76 2.048-141.696-15.872-23.424-29.952-48.896-29.312-78.080-3.072-47.104-0.896-109.056 49.024-131.584 55.424-21.632 142.848-19.84 169.984 43.136 11.136 55.168 19.84 126.464-28.8 166.912 57.088 42.496 39.552 152.192-33.664 165.12-43.136 7.808-95.616 8.96-129.28-23.808z" />
<glyph unicode="&#xe9b0;" d="M507.136 526.976c6.4 3.072 19.328 9.344 25.728 12.544-0.128-32.896 12.288-71.296-9.216-99.968-31.744 16.384-19.84 58.88-16.512 87.424z" />
<glyph unicode="&#xe9b1;" d="M510.848 386.048c48.64-11.136 23.808-83.712 24.192-120.96-6.4-1.664-19.328-4.992-25.728-6.656-9.856 41.472-13.44 86.912 1.536 127.616z" />
<glyph unicode="&#xe9b2;" d="M254.336 748.16c5.376 12.544 10.752 25.088 16 37.632 6.912-18.56 13.568-37.12 19.968-55.808 7.552 7.040 22.912 20.992 30.592 28.032 0.512 6.656 1.792 20.224 2.432 26.88 3.968-9.472 12.16-28.288 16.256-37.76-14.72-7.040-29.312-14.208-44.544-19.84-13.696 6.912-26.88 14.336-40.704 20.864z" />
<glyph unicode="&#xe9b3;" d="M707.84 733.312c-25.6 7.552-7.808 34.944-8.448 52.992 3.2-12.544 9.856-37.504 13.184-49.92 15.488 11.648 31.616 22.656 48.256 32.768 1.28-5.376 3.712-16.128 4.992-21.504-17.664-10.368-37.248-31.36-57.984-14.336z" />
<glyph unicode="&#xe9b4;" d="M434.176 564.736c33.664 32.768 86.144 31.616 129.28 23.808 73.216-12.928 90.752-122.624 33.664-165.12 48.64-40.448 39.936-111.744 28.8-166.912-27.136-62.976-114.56-64.768-169.984-43.136-49.92 22.528-52.096 84.48-49.024 131.584-0.64 29.184 13.44 54.656 29.312 78.080-30.592 39.936-38.144 102.912-2.048 141.696zM507.136 526.976c-3.328-28.544-15.232-71.040 16.512-87.424 21.504 28.672 9.088 67.072 9.216 99.968-6.4-3.2-19.328-9.472-25.728-12.544zM510.848 386.048c-14.976-40.704-11.392-86.144-1.536-127.616 6.4 1.664 19.328 4.992 25.728 6.656-0.384 37.248 24.448 109.824-24.192 120.96z" />
<glyph unicode="&#xe9b5;" glyph-name="collect_icon" d="M363.264 606.976c49.792 104.448 99.712 208.768 148.864 313.472 51.456-103.552 99.456-208.768 149.376-313.088 114.688-25.984 235.52-23.552 348.8-53.12-88.192-73.728-166.784-158.336-253.44-234.112 17.664-115.456 46.080-229.12 60.672-344.96-101.376 55.68-201.856 114.304-305.792 164.48-102.784-52.096-203.648-108.8-304.512-164.736 15.36 116.096 44.16 229.888 60.288 345.856-85.12 76.928-165.76 158.72-252.416 233.728 113.28 28.544 233.472 27.52 348.16 52.48z" />
<glyph unicode="&#xe9b6;" d="M143.744 944.128c242.432 3.712 485.12 0.64 727.68 1.536 53.632 4.608 105.472-44.928 100.096-99.2 0-265.216-0.128-530.432 0-795.776 6.272-54.784-45.44-105.984-100.096-100.352-235.136 0.128-470.4 0.128-705.536 0.128-54.656-5.376-104.704 45.952-100.096 100.224 0 265.088 0 530.176 0 795.392-3.456 45.824 32.896 90.88 77.952 98.048zM452.352 839.424c-69.376-26.752-119.040-98.816-114.816-173.696-0.768-96.128 90.752-181.76 186.88-172.928 101.12-3.328 188.928 96.768 174.72 196.736-7.296 115.072-141.056 196.224-246.784 149.888zM299.648 417.664c-53.504-30.336-99.712-84.352-99.84-148.48-1.024-74.88 0.256-149.76-0.512-224.64 213.12-0.768 426.368-0.384 639.488-0.128-2.304 81.28 3.584 162.944-3.2 243.968-19.328 102.656-124.16 158.336-218.624 175.232-106.752 14.72-222.080 9.472-317.312-45.952z" />
<glyph unicode="&#xe9b7;" d="M452.352 839.424c105.728 46.336 239.488-34.816 246.784-149.888 14.208-99.968-73.6-200.064-174.72-196.736-96.128-8.832-187.648 76.8-186.88 172.928-4.224 74.88 45.44 146.944 114.816 173.696z" />
<glyph unicode="&#xe9b8;" d="M299.648 417.664c95.232 55.424 210.56 60.672 317.312 45.952 94.464-16.896 199.296-72.576 218.624-175.232 6.784-81.024 0.896-162.688 3.2-243.968-213.12-0.256-426.368-0.64-639.488 0.128 0.768 74.88-0.512 149.76 0.512 224.64 0.128 64.128 46.336 118.144 99.84 148.48z" />
<glyph unicode="&#xe9b9;" d="M123.52 935.552c30.72 5.504 61.696 11.264 93.056 10.88 218.368-0.64 436.608-0.384 654.976-0.64 57.728 0.768 101.632-58.88 99.712-113.792-0.128-256.384 0.128-512.768-0.128-769.152 1.664-55.168-41.728-112.512-99.84-112-213.76-1.28-427.52-0.384-641.28-0.768-40.576-3.712-79.616 19.84-98.048 55.68-27.904 44.032-17.28 98.048-19.456 147.2-21.376 16.512-49.024 34.048-48.256 64.768 1.28 27.52 23.296 45.824 40.832 64.384 0.512 27.008 0.64 54.016 0.512 81.024-17.792 24.064-44.032 50.304-36.224 83.072 3.712 22.272 24.704 34.688 39.424 49.536 0 34.688-0.128 69.248-0.256 103.936-17.92 23.168-44.928 46.72-40.192 79.104 1.024 25.472 26.752 36.864 44.416 50.176 0 69.12-2.816 138.368 10.752 206.592zM424.448 619.008c29.696-50.304 58.24-101.12 87.68-151.552-22.272-0.384-44.416-0.896-66.56-1.28 1.28-11.648 3.584-34.816 4.864-46.464 26.24 0.256 52.608 0.256 78.848 0.128 0-8.064-0.128-24.448-0.256-32.64-27.392-0.128-54.784-0.384-82.048-0.512-0.128-11.776-0.128-35.2-0.256-46.976 27.52-0.384 55.040-0.64 82.432-1.024-0.128-20.864-0.256-41.856-0.512-62.72 23.424 0 46.72 0.128 70.016 0-0.256 20.992-0.384 41.984-0.512 62.848 26.24 0.256 52.48 0.512 78.848 0.896-0.384 11.776-1.024 35.328-1.28 47.232-25.856 0-51.712 0-77.44 0.128-0.128 8.192-0.128 24.704-0.128 32.896 25.6 0 51.328 0.128 77.056 0.128 0.384 11.52 1.28 34.688 1.664 46.336-21.248 0.256-42.368 0.512-63.488 0.768 30.72 50.432 60.16 101.504 90.368 152.192-24.32-0.128-48.64-0.384-72.96-0.64-21.12-46.72-43.648-92.544-65.152-139.008-20.608 46.976-41.856 93.824-65.024 139.648-25.344-0.128-50.816-0.256-76.16-0.384z" />
<glyph unicode="&#xe9ba;" d="M424.448 619.008c25.344 0.128 50.816 0.256 76.16 0.384 23.168-45.824 44.416-92.672 65.024-139.648 21.504 46.464 44.032 92.288 65.152 139.008 24.32 0.256 48.64 0.512 72.96 0.64-30.208-50.688-59.648-101.76-90.368-152.192 21.12-0.256 42.24-0.512 63.488-0.768-0.384-11.648-1.28-34.816-1.664-46.336-25.728 0-51.456-0.128-77.056-0.128 0-8.192 0-24.704 0.128-32.896 25.728-0.128 51.584-0.128 77.44-0.128 0.256-11.904 0.896-35.456 1.28-47.232-26.368-0.384-52.608-0.64-78.848-0.896 0.128-20.864 0.256-41.856 0.512-62.848-23.296 0.128-46.592 0-70.016 0 0.256 20.864 0.384 41.856 0.512 62.72-27.392 0.384-54.912 0.64-82.432 1.024 0.128 11.776 0.128 35.2 0.256 46.976 27.264 0.128 54.656 0.384 82.048 0.512 0.128 8.192 0.256 24.576 0.256 32.64-26.24 0.128-52.608 0.128-78.848-0.128-1.28 11.648-3.584 34.816-4.864 46.464 22.144 0.384 44.288 0.896 66.56 1.28-29.44 50.432-57.984 101.248-87.68 151.552z" />
<glyph unicode="&#xe9bb;" glyph-name="more_icon" d="M15.232 766.848c67.712-0.512 135.424-0.128 203.008-0.512 75.264-109.952 155.136-216.832 228.352-328.064-78.976-105.344-151.68-215.040-228.608-321.792-67.456 0.512-134.784 0.384-202.112-0.128 75.264 107.904 150.144 216.192 227.456 322.56-73.088 111.232-153.088 217.856-228.096 327.936zM308.48 766.976c67.584-0.768 135.296-0.128 203.008-0.64 75.392-110.080 155.904-216.832 228.352-328.704-79.36-104.704-151.424-214.912-228.736-321.152-67.456 0.384-134.912 0.256-202.24 0 72.192 103.040 144.64 205.952 217.216 308.608 19.584 16.768-3.456 35.072-12.032 49.792-69.12 97.024-137.6 194.432-205.568 292.096zM591.872 767.104c67.456-0.768 134.912-1.024 202.368-0.128 77.056-107.392 151.424-216.832 229.12-323.712-74.112-110.464-151.936-218.368-228.736-326.912-67.456 0.768-134.784 0.64-202.112-0.128 73.216 104.832 147.2 209.024 220.288 313.856 13.056 12.928-4.608 26.88-10.496 38.144-70.4 99.328-140.416 199.040-210.432 298.88z" />
<glyph unicode="&#xe9bc;" d="M310.272 793.728c-22.784 57.344 5.504 143.104 72.96 151.936 71.808 4.864 127.104-61.696 144.384-125.696 0.64-25.472 2.688-51.072 5.376-76.544 13.696 62.72 70.272 122.368 138.624 112.128 52.992-3.584 72.832-69.76 51.968-112.384-17.152-61.568-79.488-89.344-135.296-106.752 88.448-11.648 168.96 45.312 219.136 113.664 1.024-9.472 3.072-28.416 4.096-37.888 9.856-0.512 29.696-1.408 39.552-1.92-56.704-63.232-136.192-113.408-223.744-112-63.744 0.896-130.304-16.64-192.384 3.968-111.744-1.664-223.744 39.040-306.304 114.816 11.776 1.28 35.2 3.968 46.848 5.376 1.024 10.624 2.944 32.128 3.968 42.752 73.344-67.584 165.248-119.424 267.264-121.344-53.376 40.96-118.272 80.256-136.448 149.888zM361.728 843.776c-18.304-85.376 60.032-147.072 127.488-180.48 4.096 67.2 17.792 147.712-37.888 198.784-24.704 29.056-88.448 29.184-89.6-18.304zM617.856 801.664c-57.728-24.832-65.536-94.464-76.928-148.224 69.76 13.184 158.336 56.448 142.592 142.336-20.224 10.368-44.416 20.224-65.664 5.888z" />
<glyph unicode="&#xe9bd;" d="M84.352 526.976c19.712 32 57.856 47.36 94.464 45.696 222.464 0.128 444.928 0 667.392 0.128 36.096 2.048 73.344-13.184 92.8-44.672 25.728-36.096 18.944-82.56 18.048-124.032-296.832-1.152-593.536-1.408-890.24 0.128-1.024 41.088-7.168 86.784 17.536 122.752zM418.56 546.944c0.384-39.168 0.512-78.208 0.384-117.248 62.080-0.512 124.032-0.512 186.112 0-0.128 39.040-0.128 78.208 0.384 117.248-62.336 1.536-124.672 1.536-186.88 0z" />
<glyph unicode="&#xe9be;" d="M92.416 51.2c0.256 108.544-1.792 217.216 1.408 325.76 278.784-0.128 557.568-0.64 836.352 0.256 4.096-108.928 1.28-217.984 1.792-327.040 3.328-53.12-46.464-100.736-98.816-99.456-213.888-1.28-427.904-0.896-641.792-0.256-53.248-2.176-101.632 47.744-98.944 100.736zM418.176 352.768c0.384-128.128 0.384-256.384 0-384.512 62.208-0.384 124.416-0.64 186.752 0.256-0.256 128-0.512 256 0 384-62.208 1.152-124.544 1.024-186.752 0.256z" />
<glyph unicode="&#xe9bf;" d="M361.728 843.776c1.152 47.488 64.896 47.36 89.6 18.304 55.68-51.072 41.984-131.584 37.888-198.784-67.456 33.408-145.792 95.104-127.488 180.48z" />
<glyph unicode="&#xe9c0;" d="M617.856 801.664c21.248 14.336 45.44 4.48 65.664-5.888 15.744-85.888-72.832-129.152-142.592-142.336 11.392 53.76 19.2 123.392 76.928 148.224z" />
<glyph unicode="&#xe9c1;" d="M418.56 546.944c62.208 1.536 124.544 1.536 186.88 0-0.512-39.040-0.512-78.208-0.384-117.248-62.080-0.512-124.032-0.512-186.112 0 0.128 39.040 0 78.080-0.384 117.248z" />
<glyph unicode="&#xe9c2;" d="M418.176 352.768c62.208 0.768 124.544 0.896 186.752-0.256-0.512-128-0.256-256 0-384-62.336-0.896-124.544-0.64-186.752-0.256 0.384 128.128 0.384 256.384 0 384.512z" />
<glyph unicode="&#xe9c3;" glyph-name="shopping_icon" d="M14.208 907.776c72.704-1.152 145.536 1.152 218.24-1.792 3.84-40.96 11.008-81.664 18.56-122.112 237.952 1.024 475.904-1.408 713.856 1.152 29.056-22.016 68.736-50.304 55.552-92.416-24.32-118.656-73.088-232.192-131.712-337.92-146.944 3.968-293.888-2.816-440.704 3.712-31.744-1.408-63.616-3.584-95.36-3.328 0-14.336 0-42.88-0.128-57.216 168.704-1.152 337.28 0.384 505.856-0.64 25.472 2.432 35.328-26.624 49.152-41.984-9.344-11.648-19.328-22.656-29.696-33.408-61.952-5.248-124.416-0.512-186.496-2.176-115.84-1.664-231.936 4.096-347.52-3.328-6.656 2.176-19.84 6.4-26.496 8.576-46.976 201.472-101.248 401.28-149.504 602.496-45.568 1.664-91.264 1.28-136.832 0.896-5.76 26.496-11.52 52.992-16.768 79.488zM374.528 150.4c56.448 29.696 130.816-24.192 123.776-86.656 3.328-53.12-50.176-98.176-102.016-87.552-46.976 2.432-70.656 48.128-82.944 87.552 10.24 34.304 24.704 72.832 61.184 86.656zM802.56 156.672c69.248 18.048 136.704-67.456 100.48-130.048-24.32-60.928-116.608-69.376-153.6-16.384-38.4 50.56-10.88 133.632 53.12 146.432z" />
<glyph unicode="&#xe9c4;" d="M601.984 870.912c55.936 8.448 111.616 28.16 168.704 18.56 11.776-68.096 24.832-136.064 34.432-204.544 43.648-6.656 106.752 18.56 133.12-29.44 7.68-52.992 1.536-107.136 3.2-160.512-70.4-1.024-140.8 3.072-210.944-1.408-18.048-0.768-28.8-20.352-33.792-35.584-12.928-53.76-7.68-109.696-8.32-164.352 1.92-35.456 1.152-76.928 29.44-102.912 73.856-9.984 148.736-1.92 223.104-4.352h1.92c-2.432-49.152 0.768-98.432-2.944-147.456-3.712-25.984-30.976-40.832-55.68-37.632-269.568-0.256-539.136 0-808.576-0.128-22.528-1.408-49.536 4.48-57.728 28.672-5.504 23.424-3.584 47.872-4.096 71.68 1.664 179.84-1.28 359.808 1.408 539.648 3.2 47.616 59.136 45.312 93.952 44.672-6.272 32.128-19.2 66.944 1.024 96.896 164.608 25.728 327.808 59.008 491.776 88.192zM167.168 730.624c2.816-15.488 5.504-30.976 8.32-46.464 188.16 0.256 376.32 0.384 564.352 0-5.12 49.28-14.080 98.176-20.48 147.328-184.576-30.72-367.616-70.144-552.192-100.864zM337.408 440.064c17.792-29.44 35.456-59.008 54.784-87.424-17.152-6.528-34.176-13.44-51.072-20.352 24.192-10.752 49.408-18.432 74.368-26.624-21.76-6.4-43.648-12.288-65.664-18.176 1.152-5.504 3.584-16.384 4.736-21.888 16.128 0.128 32.128 0.128 48.256 0.256 0-10.112-0.128-30.208-0.256-40.192 10.496 0 31.616 0 42.112 0.128-0.128 9.728-0.512 29.312-0.64 39.040 18.688 0.768 37.504 1.664 56.192 2.56-9.216 28.928-43.008 29.824-66.944 40.192 24.32 6.656 48.768 13.568 71.808 23.936-11.008 4.736-32.896 14.080-43.904 18.816 13.312 32.384 33.152 61.568 50.048 92.288-56.064 11.776-63.616-52.352-87.552-87.040-12.416 28.416-24.96 56.576-37.632 84.736-12.16 0-36.48-0.256-48.64-0.256z" />
<glyph unicode="&#xe9c5;" d="M746.624 443.136c64.896 0.128 129.664 0.128 194.56 0 22.272-0.128 44.672-0.384 67.072-0.896 2.56-63.36 4.096-127.104-1.664-190.464-21.76 0-43.392-0.128-65.152-0.128-64.896 0-129.664 0-194.56-0.128 0.128 63.872 0.256 127.744-0.256 191.616zM808.576 344.832c12.032-17.408 39.808-47.872 59.008-21.888 25.344 20.48-4.608 47.104-22.016 59.776-12.416-12.544-24.832-25.216-36.992-37.888z" />
<glyph unicode="&#xe9c6;" d="M696.704 457.984c4.992 15.232 15.744 34.816 33.792 35.584 70.144 4.48 140.544 0.384 210.944 1.408-0.128-17.28-0.256-34.56-0.256-51.84-64.896 0.128-129.664 0.128-194.56 0 0.512-63.872 0.384-127.744 0.256-191.616 64.896 0.128 129.664 0.128 194.56 0.128-0.128-21.76-0.256-43.52-0.512-65.28-74.368 2.432-149.248-5.632-223.104 4.352-28.288 25.984-27.52 67.456-29.44 102.912 0.64 54.656-4.608 110.592 8.32 164.352z" />
</font>
</defs>
</svg>
